<svg width="201" height="40" viewBox="0 0 201 40" fill="none" xmlns="http://www.w3.org/2000/svg">
<path d="M183.054 4.25281H186.286L187.586 9.66951C187.658 9.98248 187.724 10.3255 187.785 10.6987C187.857 11.0598 187.923 11.4029 187.983 11.7279C188.043 12.113 188.11 12.4922 188.182 12.8654H188.218C188.278 12.5283 188.344 12.1793 188.417 11.8181C188.477 11.5172 188.543 11.1862 188.615 10.8251C188.699 10.464 188.778 10.1209 188.85 9.7959L190.06 4.25281H193.021L194.23 9.75979C194.303 10.0968 194.375 10.4459 194.447 10.807C194.519 11.1561 194.586 11.4871 194.646 11.8001C194.706 12.1612 194.772 12.5163 194.844 12.8654H194.88C194.953 12.4922 195.025 12.113 195.097 11.7279C195.157 11.4029 195.224 11.0538 195.296 10.6806C195.38 10.3075 195.458 9.9584 195.53 9.6334L196.812 4.25281H200.026L196.487 17.1626H193.364L192.01 10.9695C191.949 10.7167 191.895 10.4519 191.847 10.1751C191.799 9.88618 191.751 9.62136 191.703 9.38062C191.655 9.10377 191.606 8.83293 191.558 8.56812H191.522C191.474 8.83293 191.426 9.10377 191.378 9.38062C191.33 9.62136 191.281 9.88618 191.233 10.1751C191.197 10.4519 191.149 10.7167 191.089 10.9695L189.735 17.1626H186.593L183.054 4.25281Z" fill="#151516"/>
<path d="M176.864 14.8695C177.382 14.8695 177.833 14.7672 178.218 14.5626C178.615 14.3459 178.946 14.057 179.211 13.6959C179.476 13.3228 179.669 12.8834 179.789 12.3778C179.921 11.8723 179.988 11.3246 179.988 10.7348C179.988 10.145 179.921 9.59726 179.789 9.0917C179.669 8.58614 179.476 8.14679 179.211 7.77364C178.946 7.40049 178.615 7.1116 178.218 6.90697C177.833 6.6903 177.382 6.58196 176.864 6.58196C176.346 6.58196 175.889 6.6903 175.492 6.90697C175.107 7.1116 174.782 7.40049 174.517 7.77364C174.252 8.14679 174.053 8.58614 173.921 9.0917C173.789 9.59726 173.722 10.145 173.722 10.7348C173.722 11.3246 173.789 11.8723 173.921 12.3778C174.053 12.8834 174.252 13.3228 174.517 13.6959C174.782 14.057 175.107 14.3459 175.492 14.5626C175.889 14.7672 176.346 14.8695 176.864 14.8695ZM176.846 17.4695C175.871 17.4695 174.986 17.301 174.192 16.964C173.409 16.6269 172.741 16.1575 172.188 15.5556C171.646 14.9538 171.225 14.2436 170.924 13.4251C170.623 12.5945 170.472 11.6977 170.472 10.7348C170.472 9.7718 170.623 8.88105 170.924 8.06253C171.225 7.23197 171.646 6.51576 172.188 5.9139C172.741 5.31205 173.409 4.8426 174.192 4.50556C174.986 4.16852 175.871 4 176.846 4C177.821 4 178.7 4.16852 179.482 4.50556C180.277 4.8426 180.951 5.31205 181.504 5.9139C182.058 6.51576 182.485 7.23197 182.786 8.06253C183.087 8.88105 183.238 9.7718 183.238 10.7348C183.238 11.6977 183.087 12.5945 182.786 13.4251C182.485 14.2436 182.058 14.9538 181.504 15.5556C180.951 16.1575 180.277 16.6269 179.482 16.964C178.7 17.301 177.821 17.4695 176.846 17.4695Z" fill="#151516"/>
<path d="M161.246 4.25281H164.442V14.4543H170.238V17.1626H161.246V4.25281Z" fill="#151516"/>
<path d="M150.384 4.25281H159.989V6.9431H153.579V9.56118H158.942V12.1431H153.579V17.1626H150.384V4.25281Z" fill="#151516"/>
<path d="M137.794 4.25281H140.99V8.92923L145.432 4.25281H149.223L144.276 9.43479L149.512 17.1626H145.793L142.073 11.5834L140.99 12.7209V17.1626H137.794V4.25281Z" fill="#151516"/>
<path d="M125.68 4.25281H131.856C132.493 4.25281 133.089 4.33707 133.643 4.50559C134.197 4.66207 134.672 4.89679 135.069 5.20976C135.479 5.52272 135.798 5.91393 136.026 6.38338C136.255 6.84079 136.369 7.37042 136.369 7.97228C136.369 8.73062 136.183 9.3746 135.81 9.90424C135.449 10.4339 134.889 10.8311 134.131 11.0959V11.1501C134.696 11.3427 135.124 11.6255 135.412 11.9987C135.713 12.3598 135.912 12.8654 136.008 13.5154C136.081 13.9367 136.123 14.352 136.135 14.7612C136.159 15.1584 136.183 15.5196 136.207 15.8446C136.231 16.1575 136.267 16.4223 136.315 16.639C136.363 16.8436 136.442 16.964 136.55 17.0001V17.1626H133.444C133.36 17.1145 133.294 16.9941 133.246 16.8015C133.21 16.5969 133.174 16.3561 133.137 16.0793C133.113 15.7904 133.089 15.4834 133.065 15.1584C133.041 14.8214 133.005 14.4904 132.957 14.1654C132.873 13.5635 132.662 13.1061 132.325 12.7931C132 12.4802 131.494 12.3237 130.808 12.3237H128.876V17.1626H125.68V4.25281ZM131.278 9.9584C131.916 9.9584 132.391 9.81998 132.704 9.54312C133.029 9.26627 133.192 8.88108 133.192 8.38756C133.192 7.91811 133.035 7.53292 132.722 7.232C132.421 6.93107 131.964 6.7806 131.35 6.7806H128.876V9.9584H131.278Z" fill="#151516"/>
<path d="M118.06 14.8695C118.578 14.8695 119.029 14.7672 119.414 14.5626C119.812 14.3459 120.143 14.057 120.407 13.6959C120.672 13.3228 120.865 12.8834 120.985 12.3778C121.118 11.8723 121.184 11.3246 121.184 10.7348C121.184 10.145 121.118 9.59726 120.985 9.0917C120.865 8.58614 120.672 8.14679 120.407 7.77364C120.143 7.40049 119.812 7.1116 119.414 6.90697C119.029 6.6903 118.578 6.58196 118.06 6.58196C117.543 6.58196 117.085 6.6903 116.688 6.90697C116.303 7.1116 115.978 7.40049 115.713 7.77364C115.448 8.14679 115.249 8.58614 115.117 9.0917C114.985 9.59726 114.918 10.145 114.918 10.7348C114.918 11.3246 114.985 11.8723 115.117 12.3778C115.249 12.8834 115.448 13.3228 115.713 13.6959C115.978 14.057 116.303 14.3459 116.688 14.5626C117.085 14.7672 117.543 14.8695 118.06 14.8695ZM118.042 17.4695C117.067 17.4695 116.182 17.301 115.388 16.964C114.605 16.6269 113.937 16.1575 113.384 15.5556C112.842 14.9538 112.421 14.2436 112.12 13.4251C111.819 12.5945 111.668 11.6977 111.668 10.7348C111.668 9.7718 111.819 8.88105 112.12 8.06253C112.421 7.23197 112.842 6.51576 113.384 5.9139C113.937 5.31205 114.605 4.8426 115.388 4.50556C116.182 4.16852 117.067 4 118.042 4C119.017 4 119.896 4.16852 120.678 4.50556C121.473 4.8426 122.147 5.31205 122.7 5.9139C123.254 6.51576 123.681 7.23197 123.982 8.06253C124.283 8.88105 124.434 9.7718 124.434 10.7348C124.434 11.6977 124.283 12.5945 123.982 13.4251C123.681 14.2436 123.254 14.9538 122.7 15.5556C122.147 16.1575 121.473 16.6269 120.678 16.964C119.896 17.301 119.017 17.4695 118.042 17.4695Z" fill="#151516"/>
<path d="M94.8737 4.25281H98.1056L99.4056 9.66951C99.4779 9.98248 99.5441 10.3255 99.6042 10.6987C99.6765 11.0598 99.7427 11.4029 99.8029 11.7279C99.863 12.113 99.9292 12.4922 100.001 12.8654H100.038C100.098 12.5283 100.164 12.1793 100.236 11.8181C100.296 11.5172 100.363 11.1862 100.435 10.8251C100.519 10.464 100.597 10.1209 100.67 9.7959L101.879 4.25281H104.84L106.05 9.75979C106.122 10.0968 106.195 10.4459 106.267 10.807C106.339 11.1561 106.405 11.4871 106.465 11.8001C106.526 12.1612 106.592 12.5163 106.664 12.8654H106.7C106.772 12.4922 106.845 12.113 106.917 11.7279C106.977 11.4029 107.043 11.0538 107.115 10.6806C107.2 10.3075 107.278 9.9584 107.35 9.6334L108.632 4.25281H111.846L108.307 17.1626H105.183L103.829 10.9695C103.769 10.7167 103.715 10.4519 103.667 10.1751C103.619 9.88618 103.57 9.62136 103.522 9.38062C103.474 9.10377 103.426 8.83293 103.378 8.56812H103.342C103.294 8.83293 103.245 9.10377 103.197 9.38062C103.149 9.62136 103.101 9.88618 103.053 10.1751C103.017 10.4519 102.969 10.7167 102.908 10.9695L101.554 17.1626H98.4126L94.8737 4.25281Z" fill="#151516"/>
<path d="M159.518 22.8555H165.693C166.331 22.8555 166.927 22.9397 167.481 23.1082C168.034 23.2647 168.51 23.4995 168.907 23.8124C169.316 24.1254 169.635 24.5166 169.864 24.986C170.093 25.4435 170.207 25.9731 170.207 26.5749C170.207 27.3333 170.02 27.9773 169.647 28.5069C169.286 29.0365 168.726 29.4338 167.968 29.6986V29.7527C168.534 29.9453 168.961 30.2282 169.25 30.6014C169.551 30.9625 169.75 31.468 169.846 32.118C169.918 32.5393 169.96 32.9546 169.972 33.3639C169.996 33.7611 170.02 34.1222 170.044 34.4472C170.069 34.7602 170.105 35.025 170.153 35.2417C170.201 35.4463 170.279 35.5667 170.388 35.6028V35.7653H167.282C167.198 35.7171 167.131 35.5968 167.083 35.4042C167.047 35.1995 167.011 34.9588 166.975 34.6819C166.951 34.3931 166.927 34.0861 166.903 33.7611C166.879 33.4241 166.843 33.093 166.794 32.768C166.71 32.1662 166.5 31.7088 166.162 31.3958C165.837 31.0828 165.332 30.9264 164.646 30.9264H162.714V35.7653H159.518V22.8555ZM165.115 28.5611C165.753 28.5611 166.229 28.4226 166.542 28.1458C166.867 27.8689 167.029 27.4837 167.029 26.9902C167.029 26.5208 166.873 26.1356 166.56 25.8347C166.259 25.5337 165.801 25.3833 165.187 25.3833H162.714V28.5611H165.115Z" fill="#151516"/>
<path d="M148.18 22.8555H157.966V25.4916H151.376V27.8027H157.027V30.2944H151.376V33.0569H158.074V35.7653H148.18V22.8555Z" fill="#151516"/>
<path d="M140.523 33.075C141.583 33.075 142.377 32.762 142.907 32.1361C143.436 31.4981 143.701 30.5833 143.701 29.3916C143.701 28.212 143.43 27.2731 142.889 26.5749C142.347 25.8768 141.571 25.5277 140.56 25.5277H138.646V33.075H140.523ZM135.45 22.8555H140.957C141.848 22.8555 142.66 23.012 143.394 23.3249C144.129 23.6379 144.755 24.0772 145.272 24.643C145.802 25.2087 146.211 25.8948 146.5 26.7013C146.789 27.5078 146.933 28.4046 146.933 29.3916C146.933 30.5352 146.741 31.5523 146.355 32.443C145.97 33.3217 145.417 34.038 144.694 34.5917C144.189 34.9769 143.611 35.2718 142.961 35.4764C142.311 35.669 141.577 35.7653 140.758 35.7653H135.45V22.8555Z" fill="#151516"/>
<path d="M125.24 22.8555H128.436V33.0569H134.232V35.7653H125.24V22.8555Z" fill="#151516"/>
<path d="M120.269 22.8555H123.465V35.7653H120.269V22.8555Z" fill="#151516"/>
<path d="M113.199 36C111.381 36 110.021 35.5847 109.118 34.7542C108.228 33.9116 107.782 32.7319 107.782 31.2153V22.8555H110.978V31.3236C110.978 31.9616 111.147 32.4731 111.484 32.8583C111.833 33.2435 112.404 33.4361 113.199 33.4361C113.945 33.4361 114.493 33.2375 114.842 32.8403C115.203 32.431 115.384 31.9074 115.384 31.2694V22.8555H118.58V31.2153C118.58 32.7079 118.128 33.8815 117.225 34.7361C116.335 35.5787 114.992 36 113.199 36Z" fill="#151516"/>
<path d="M95.7585 22.8555H101.988C102.662 22.8555 103.246 22.9337 103.739 23.0902C104.233 23.2467 104.654 23.4633 105.003 23.7402C105.749 24.3541 106.123 25.1786 106.123 26.2138C106.123 26.8638 105.966 27.3935 105.653 27.8027C105.34 28.212 104.895 28.525 104.317 28.7416V28.7958C105.027 29.0125 105.587 29.4037 105.996 29.9694C106.417 30.5231 106.628 31.1852 106.628 31.9555C106.628 32.6055 106.514 33.1713 106.285 33.6528C106.056 34.1222 105.731 34.5194 105.31 34.8444C104.528 35.4583 103.468 35.7653 102.132 35.7653H95.7585V22.8555ZM101.771 33.2014C102.301 33.2014 102.716 33.0629 103.017 32.7861C103.318 32.5092 103.468 32.1421 103.468 31.6847C103.468 31.1671 103.3 30.7819 102.963 30.5291C102.638 30.2643 102.228 30.1319 101.735 30.1319H98.9183V33.2014H101.771ZM101.518 27.9652C101.976 27.9652 102.349 27.8569 102.638 27.6402C102.927 27.4115 103.071 27.0865 103.071 26.6652C103.071 26.256 102.933 25.943 102.656 25.7263C102.379 25.4976 102.006 25.3833 101.536 25.3833H98.9183V27.9652H101.518Z" fill="#151516"/>
<path d="M74.4505 4.14062H67.8567C65.3117 4.14062 63.2477 6.20456 63.2477 8.74959V15.8831C63.2477 17.3527 61.4736 18.0905 60.4314 17.0551L48.7876 5.48047C47.924 4.62172 46.7559 4.14062 45.539 4.14062H36.2333C33.6883 4.14062 31.6244 6.20456 31.6244 8.74959V15.8402C31.6244 17.3078 29.8532 18.0466 28.81 17.0141L17.1593 5.47462C16.2967 4.61977 15.1305 4.14062 13.9166 4.14062H4.60894C2.06392 4.14062 0 6.20456 0 8.74959V18.0436C0 19.2664 0.485973 20.4384 1.3496 21.303L14.4621 34.4156C15.3267 35.2802 16.4987 35.7652 17.7214 35.7652H27.0154C29.5604 35.7652 31.6244 33.7012 31.6244 31.1562V24.0217C31.6244 22.5531 33.3985 21.8143 34.4407 22.8497L46.0894 34.4253C46.953 35.2831 48.1211 35.7652 49.338 35.7652H58.6398C61.1848 35.7652 63.2487 33.7012 63.2487 31.1562V21.6045C63.2487 20.6921 63.9884 19.9524 64.9008 19.9524H74.4524C76.9975 19.9524 79.0614 17.8885 79.0614 15.3434V8.74959C79.0614 6.20456 76.9975 4.14062 74.4524 4.14062H74.4505Z" fill="#151516"/>
</svg>
