<svg width="139" height="26" viewBox="0 0 139 26" fill="none" xmlns="http://www.w3.org/2000/svg">
<path d="M117.625 25.602L111.984 7.77454H117.769L120.337 17.2126L122.904 7.77454H127.497L130.064 17.1403L132.668 7.77454H138.49L132.813 25.602H128.003L125.219 15.5492L122.507 25.602H117.625Z" fill="white"/>
<path d="M102.705 25.9999C100.945 25.9999 99.3658 25.6021 97.9676 24.8065C96.5935 23.9869 95.5086 22.8779 94.7131 21.4797C93.9175 20.0574 93.5198 18.4542 93.5198 16.6703C93.5198 14.8622 93.9175 13.2591 94.7131 11.8608C95.5086 10.4626 96.5935 9.3657 97.9676 8.57015C99.3658 7.7746 100.945 7.37683 102.705 7.37683C104.465 7.37683 106.032 7.7746 107.406 8.57015C108.78 9.3657 109.865 10.4626 110.66 11.8608C111.456 13.2591 111.854 14.8622 111.854 16.6703C111.854 18.4542 111.456 20.0574 110.66 21.4797C109.865 22.8779 108.78 23.9869 107.406 24.8065C106.032 25.6021 104.465 25.9999 102.705 25.9999ZM102.705 21.2266C103.5 21.2266 104.175 21.0578 104.73 20.7203C105.284 20.3587 105.694 19.8404 105.959 19.1654C106.249 18.4663 106.393 17.6346 106.393 16.6703C106.393 15.6819 106.249 14.8622 105.959 14.2113C105.694 13.5363 105.284 13.03 104.73 12.6925C104.175 12.3309 103.5 12.1501 102.705 12.1501C101.909 12.1501 101.234 12.3309 100.68 12.6925C100.125 13.03 99.7033 13.5363 99.414 14.2113C99.1248 14.8622 98.9801 15.6819 98.9801 16.6703C98.9801 17.6346 99.1248 18.4663 99.414 19.1654C99.7033 19.8404 100.125 20.3587 100.68 20.7203C101.234 21.0578 101.909 21.2266 102.705 21.2266Z" fill="white"/>
<path d="M89.5076 25.9999C88.254 25.9999 87.1812 25.6142 86.2892 24.8428C85.3972 24.0472 84.9513 22.7936 84.9513 21.082V4.6648C84.4932 4.54426 84.0954 4.47194 83.7579 4.44783C83.4204 4.39961 83.095 4.37551 82.7816 4.37551C81.6244 4.37551 80.8048 4.62864 80.3226 5.13489C79.8405 5.64115 79.5994 6.17151 79.5994 6.72599V7.77466H82.6008V12.0055H79.5994V25.6021H74.1391V12.0055H71.1738V7.77466H74.1391V6.6175C74.1391 5.29159 74.5248 4.13443 75.2962 3.14602C76.0918 2.15762 77.1284 1.38618 78.4061 0.831706C79.6838 0.277236 81.0458 0 82.4923 0C84.2039 0 85.6504 0.168753 86.8316 0.506257C88.0129 0.843762 89.2183 1.36207 90.4478 2.06119V20.1056C90.4478 20.7083 90.7853 21.0097 91.4603 21.0097C91.629 21.0097 91.7978 20.9976 91.9665 20.9735C92.1594 20.9253 92.3764 20.865 92.6174 20.7927V25.4213C92.063 25.6383 91.4964 25.7829 90.9179 25.8553C90.3634 25.9517 89.8933 25.9999 89.5076 25.9999Z" fill="white"/>
<path d="M56.0215 25.6021V7.7746H61.518V12.6564H60.8671C60.8912 11.6439 61.1443 10.7398 61.6265 9.94428C62.1327 9.14873 62.7716 8.52194 63.543 8.06389C64.3386 7.60585 65.1582 7.37683 66.002 7.37683C66.6288 7.37683 67.2194 7.47326 67.7739 7.66612C68.3525 7.83487 68.9551 8.12416 69.5819 8.53399L66.9783 13.4519C66.7373 13.2832 66.3998 13.1385 65.9658 13.018C65.5319 12.8733 65.0979 12.801 64.664 12.801C64.2542 12.801 63.8564 12.8733 63.4707 13.018C63.1091 13.1626 62.7836 13.3916 62.4943 13.705C62.2292 13.9943 62.0122 14.368 61.8434 14.826C61.7229 15.1635 61.6265 15.5975 61.5542 16.1278C61.5059 16.6341 61.4818 17.3935 61.4818 18.406V25.6021H56.0215Z" fill="white"/>
<path d="M45.752 25.9999C44.1127 25.9999 42.7145 25.7467 41.5573 25.2405C40.4001 24.7101 39.46 24.011 38.7367 23.1431C38.0135 22.2511 37.4831 21.2627 37.1456 20.1779C36.8322 19.069 36.6755 17.9359 36.6755 16.7787C36.6755 15.6698 36.8322 14.5609 37.1456 13.4519C37.4831 12.343 37.9894 11.3305 38.6644 10.4144C39.3635 9.49829 40.2676 8.76301 41.3765 8.20854C42.5095 7.65407 43.8716 7.37683 45.4627 7.37683C46.8609 7.37683 48.0904 7.61791 49.1512 8.10005C50.2119 8.5581 51.0918 9.209 51.7909 10.0528C52.5142 10.8965 53.0566 11.897 53.4182 13.0541C53.7798 14.2113 53.9606 15.4769 53.9606 16.8511C53.9606 17.0921 53.9485 17.3453 53.9244 17.6105C53.9244 17.8756 53.9003 18.2011 53.8521 18.5868H42.1359C42.2805 19.5511 42.7265 20.2502 43.4738 20.6842C44.2453 21.1181 45.1252 21.3351 46.1136 21.3351C46.9815 21.3351 47.8735 21.1904 48.7895 20.9011C49.7056 20.5877 50.5012 20.1658 51.1762 19.6355L53.4905 23.4686C52.5503 24.0954 51.6945 24.6016 50.9231 24.9873C50.1516 25.349 49.3561 25.6021 48.5364 25.7467C47.7409 25.9155 46.8127 25.9999 45.752 25.9999ZM48.6087 15.8747C48.657 15.6819 48.6931 15.489 48.7172 15.2961C48.7654 15.1033 48.7895 14.9225 48.7895 14.7537C48.7895 14.2957 48.7052 13.8979 48.5364 13.5604C48.3677 13.1988 48.1266 12.8974 47.8132 12.6564C47.5239 12.4153 47.1864 12.2345 46.8007 12.114C46.415 11.9693 46.0051 11.897 45.5712 11.897C44.7757 11.897 44.1247 12.0416 43.6185 12.3309C43.1363 12.6202 42.7747 12.9698 42.5337 13.3796C42.2926 13.7894 42.1359 14.1872 42.0636 14.5729H50.4168L48.6087 15.8747Z" fill="white"/>
<path d="M25.3059 25.602L18.0375 7.77454H24.0041L27.5117 18.4783L31.1278 7.77454H36.986L29.7537 25.602H25.3059Z" fill="white"/>
<path d="M9.18507 25.9999C7.42523 25.9999 5.84619 25.6021 4.44795 24.8065C3.07383 23.9869 1.98899 22.8779 1.19344 21.4797C0.397895 20.0574 0.00012207 18.4542 0.00012207 16.6703C0.00012207 14.8622 0.397895 13.2591 1.19344 11.8608C1.98899 10.4626 3.07383 9.3657 4.44795 8.57015C5.84619 7.7746 7.42523 7.37683 9.18507 7.37683C10.9449 7.37683 12.5119 7.7746 13.886 8.57015C15.2602 9.3657 16.345 10.4626 17.1405 11.8608C17.9361 13.2591 18.3339 14.8622 18.3339 16.6703C18.3339 18.4542 17.9361 20.0574 17.1405 21.4797C16.345 22.8779 15.2602 23.9869 13.886 24.8065C12.5119 25.6021 10.9449 25.9999 9.18507 25.9999ZM9.18507 21.2266C9.98062 21.2266 10.6556 21.0578 11.2101 20.7203C11.7646 20.3587 12.1744 19.8404 12.4396 19.1654C12.7289 18.4663 12.8735 17.6346 12.8735 16.6703C12.8735 15.6819 12.7289 14.8622 12.4396 14.2113C12.1744 13.5363 11.7646 13.03 11.2101 12.6925C10.6556 12.3309 9.98062 12.1501 9.18507 12.1501C8.38952 12.1501 7.71452 12.3309 7.16004 12.6925C6.60557 13.03 6.18369 13.5363 5.8944 14.2113C5.60511 14.8622 5.46047 15.6819 5.46047 16.6703C5.46047 17.6346 5.60511 18.4663 5.8944 19.1654C6.18369 19.8404 6.60557 20.3587 7.16004 20.7203C7.71452 21.0578 8.38952 21.2266 9.18507 21.2266Z" fill="white"/>
</svg>
