<svg width="201" height="40" viewBox="0 0 201 40" fill="none" xmlns="http://www.w3.org/2000/svg">
<path d="M183.054 4.25278H186.286L187.586 9.66948C187.658 9.98245 187.724 10.3255 187.784 10.6987C187.857 11.0598 187.923 11.4028 187.983 11.7278C188.043 12.113 188.109 12.4922 188.182 12.8653H188.218C188.278 12.5283 188.344 12.1792 188.416 11.8181C188.477 11.5172 188.543 11.1862 188.615 10.825C188.699 10.4639 188.777 10.1209 188.85 9.79587L190.059 4.25278H193.021L194.23 9.75976C194.303 10.0968 194.375 10.4459 194.447 10.807C194.519 11.1561 194.585 11.4871 194.646 11.8001C194.706 12.1612 194.772 12.5163 194.844 12.8653H194.88C194.953 12.4922 195.025 12.113 195.097 11.7278C195.157 11.4028 195.223 11.0538 195.296 10.6806C195.38 10.3074 195.458 9.95837 195.53 9.63337L196.812 4.25278H200.026L196.487 17.1626H193.364L192.009 10.9695C191.949 10.7167 191.895 10.4519 191.847 10.175C191.799 9.88615 191.751 9.62133 191.703 9.38059C191.654 9.10374 191.606 8.8329 191.558 8.56809H191.522C191.474 8.8329 191.426 9.10374 191.377 9.38059C191.329 9.62133 191.281 9.88615 191.233 10.175C191.197 10.4519 191.149 10.7167 191.089 10.9695L189.734 17.1626H186.593L183.054 4.25278Z" fill="currentColor"/>
<path d="M176.864 14.8695C177.382 14.8695 177.833 14.7672 178.219 14.5626C178.616 14.3459 178.947 14.057 179.212 13.6959C179.476 13.3228 179.669 12.8834 179.789 12.3778C179.922 11.8723 179.988 11.3246 179.988 10.7348C179.988 10.145 179.922 9.59726 179.789 9.0917C179.669 8.58614 179.476 8.14679 179.212 7.77364C178.947 7.40049 178.616 7.1116 178.219 6.90697C177.833 6.6903 177.382 6.58196 176.864 6.58196C176.347 6.58196 175.889 6.6903 175.492 6.90697C175.107 7.1116 174.782 7.40049 174.517 7.77364C174.252 8.14679 174.054 8.58614 173.921 9.0917C173.789 9.59726 173.723 10.145 173.723 10.7348C173.723 11.3246 173.789 11.8723 173.921 12.3778C174.054 12.8834 174.252 13.3228 174.517 13.6959C174.782 14.057 175.107 14.3459 175.492 14.5626C175.889 14.7672 176.347 14.8695 176.864 14.8695ZM176.846 17.4695C175.871 17.4695 174.987 17.301 174.192 16.964C173.41 16.6269 172.742 16.1575 172.188 15.5556C171.646 14.9538 171.225 14.2436 170.924 13.4251C170.623 12.5945 170.473 11.6977 170.473 10.7348C170.473 9.7718 170.623 8.88105 170.924 8.06253C171.225 7.23197 171.646 6.51576 172.188 5.9139C172.742 5.31205 173.41 4.8426 174.192 4.50556C174.987 4.16852 175.871 4 176.846 4C177.821 4 178.7 4.16852 179.482 4.50556C180.277 4.8426 180.951 5.31205 181.505 5.9139C182.058 6.51576 182.486 7.23197 182.787 8.06253C183.088 8.88105 183.238 9.7718 183.238 10.7348C183.238 11.6977 183.088 12.5945 182.787 13.4251C182.486 14.2436 182.058 14.9538 181.505 15.5556C180.951 16.1575 180.277 16.6269 179.482 16.964C178.7 17.301 177.821 17.4695 176.846 17.4695Z" fill="currentColor"/>
<path d="M161.245 4.25278H164.441V14.4542H170.237V17.1626H161.245V4.25278Z" fill="currentColor"/>
<path d="M150.384 4.25278H159.99V6.94307H153.58V9.56115H158.942V12.1431H153.58V17.1626H150.384V4.25278Z" fill="currentColor"/>
<path d="M137.794 4.25278H140.99V8.9292L145.432 4.25278H149.224L144.276 9.43476L149.512 17.1626H145.793L142.074 11.5834L140.99 12.7209V17.1626H137.794V4.25278Z" fill="currentColor"/>
<path d="M125.681 4.25278H131.856C132.494 4.25278 133.09 4.33704 133.643 4.50556C134.197 4.66204 134.673 4.89676 135.07 5.20973C135.479 5.52269 135.798 5.9139 136.027 6.38335C136.255 6.84076 136.37 7.37039 136.37 7.97225C136.37 8.73059 136.183 9.37457 135.81 9.90421C135.449 10.4338 134.889 10.8311 134.131 11.0959V11.15C134.697 11.3426 135.124 11.6255 135.413 11.9987C135.714 12.3598 135.912 12.8653 136.009 13.5153C136.081 13.9366 136.123 14.3519 136.135 14.7612C136.159 15.1584 136.183 15.5195 136.207 15.8445C136.231 16.1575 136.267 16.4223 136.316 16.639C136.364 16.8436 136.442 16.964 136.55 17.0001V17.1626H133.445C133.36 17.1144 133.294 16.9941 133.246 16.8015C133.21 16.5968 133.174 16.3561 133.138 16.0792C133.114 15.7904 133.09 15.4834 133.066 15.1584C133.041 14.8214 133.005 14.4903 132.957 14.1653C132.873 13.5635 132.662 13.1061 132.325 12.7931C132 12.4802 131.495 12.3237 130.809 12.3237H128.877V17.1626H125.681V4.25278ZM131.278 9.95837C131.916 9.95837 132.391 9.81995 132.704 9.54309C133.029 9.26624 133.192 8.88105 133.192 8.38753C133.192 7.91808 133.035 7.53289 132.723 7.23196C132.422 6.93104 131.964 6.78057 131.35 6.78057H128.877V9.95837H131.278Z" fill="currentColor"/>
<path d="M118.06 14.8695C118.578 14.8695 119.029 14.7672 119.414 14.5626C119.811 14.3459 120.142 14.057 120.407 13.6959C120.672 13.3228 120.865 12.8834 120.985 12.3778C121.117 11.8723 121.184 11.3246 121.184 10.7348C121.184 10.145 121.117 9.59726 120.985 9.0917C120.865 8.58614 120.672 8.14679 120.407 7.77364C120.142 7.40049 119.811 7.1116 119.414 6.90697C119.029 6.6903 118.578 6.58196 118.06 6.58196C117.542 6.58196 117.085 6.6903 116.688 6.90697C116.303 7.1116 115.978 7.40049 115.713 7.77364C115.448 8.14679 115.249 8.58614 115.117 9.0917C114.985 9.59726 114.918 10.145 114.918 10.7348C114.918 11.3246 114.985 11.8723 115.117 12.3778C115.249 12.8834 115.448 13.3228 115.713 13.6959C115.978 14.057 116.303 14.3459 116.688 14.5626C117.085 14.7672 117.542 14.8695 118.06 14.8695ZM118.042 17.4695C117.067 17.4695 116.182 17.301 115.388 16.964C114.605 16.6269 113.937 16.1575 113.384 15.5556C112.842 14.9538 112.421 14.2436 112.12 13.4251C111.819 12.5945 111.668 11.6977 111.668 10.7348C111.668 9.7718 111.819 8.88105 112.12 8.06253C112.421 7.23197 112.842 6.51576 113.384 5.9139C113.937 5.31205 114.605 4.8426 115.388 4.50556C116.182 4.16852 117.067 4 118.042 4C119.017 4 119.896 4.16852 120.678 4.50556C121.473 4.8426 122.147 5.31205 122.7 5.9139C123.254 6.51576 123.681 7.23197 123.982 8.06253C124.283 8.88105 124.434 9.7718 124.434 10.7348C124.434 11.6977 124.283 12.5945 123.982 13.4251C123.681 14.2436 123.254 14.9538 122.7 15.5556C122.147 16.1575 121.473 16.6269 120.678 16.964C119.896 17.301 119.017 17.4695 118.042 17.4695Z" fill="currentColor"/>
<path d="M94.8737 4.25278H98.1056L99.4056 9.66948C99.4779 9.98245 99.5441 10.3255 99.6042 10.6987C99.6765 11.0598 99.7427 11.4028 99.8029 11.7278C99.863 12.113 99.9292 12.4922 100.001 12.8653H100.038C100.098 12.5283 100.164 12.1792 100.236 11.8181C100.296 11.5172 100.363 11.1862 100.435 10.825C100.519 10.4639 100.597 10.1209 100.67 9.79587L101.879 4.25278H104.84L106.05 9.75976C106.122 10.0968 106.195 10.4459 106.267 10.807C106.339 11.1561 106.405 11.4871 106.465 11.8001C106.526 12.1612 106.592 12.5163 106.664 12.8653H106.7C106.772 12.4922 106.845 12.113 106.917 11.7278C106.977 11.4028 107.043 11.0538 107.115 10.6806C107.2 10.3074 107.278 9.95837 107.35 9.63337L108.632 4.25278H111.846L108.307 17.1626H105.183L103.829 10.9695C103.769 10.7167 103.715 10.4519 103.667 10.175C103.619 9.88615 103.57 9.62133 103.522 9.38059C103.474 9.10374 103.426 8.8329 103.378 8.56809H103.342C103.294 8.8329 103.245 9.10374 103.197 9.38059C103.149 9.62133 103.101 9.88615 103.053 10.175C103.017 10.4519 102.969 10.7167 102.908 10.9695L101.554 17.1626H98.4126L94.8737 4.25278Z" fill="currentColor"/>
<path d="M159.518 22.8555H165.693C166.331 22.8555 166.926 22.9397 167.48 23.1082C168.034 23.2647 168.509 23.4995 168.907 23.8124C169.316 24.1254 169.635 24.5166 169.863 24.986C170.092 25.4435 170.207 25.9731 170.207 26.5749C170.207 27.3333 170.02 27.9773 169.647 28.5069C169.286 29.0365 168.726 29.4338 167.968 29.6986V29.7527C168.533 29.9453 168.961 30.2282 169.25 30.6014C169.551 30.9625 169.749 31.468 169.845 32.118C169.918 32.5393 169.96 32.9546 169.972 33.3639C169.996 33.7611 170.02 34.1222 170.044 34.4472C170.068 34.7602 170.104 35.025 170.152 35.2417C170.201 35.4463 170.279 35.5667 170.387 35.6028V35.7653H167.282C167.197 35.7171 167.131 35.5968 167.083 35.4042C167.047 35.1995 167.011 34.9588 166.975 34.6819C166.95 34.3931 166.926 34.0861 166.902 33.7611C166.878 33.4241 166.842 33.093 166.794 32.768C166.71 32.1662 166.499 31.7088 166.162 31.3958C165.837 31.0828 165.332 30.9264 164.645 30.9264H162.713V35.7653H159.518V22.8555ZM165.115 28.5611C165.753 28.5611 166.228 28.4226 166.541 28.1458C166.866 27.8689 167.029 27.4837 167.029 26.9902C167.029 26.5208 166.872 26.1356 166.559 25.8347C166.258 25.5337 165.801 25.3833 165.187 25.3833H162.713V28.5611H165.115Z" fill="currentColor"/>
<path d="M148.18 22.8555H157.966V25.4916H151.376V27.8027H157.027V30.2944H151.376V33.0569H158.074V35.7653H148.18V22.8555Z" fill="currentColor"/>
<path d="M140.523 33.075C141.582 33.075 142.377 32.762 142.906 32.1361C143.436 31.4981 143.701 30.5833 143.701 29.3916C143.701 28.212 143.43 27.2731 142.888 26.5749C142.346 25.8768 141.57 25.5277 140.559 25.5277H138.645V33.075H140.523ZM135.449 22.8555H140.956C141.847 22.8555 142.659 23.012 143.394 23.3249C144.128 23.6379 144.754 24.0772 145.272 24.643C145.801 25.2087 146.21 25.8948 146.499 26.7013C146.788 27.5078 146.933 28.4046 146.933 29.3916C146.933 30.5352 146.74 31.5523 146.355 32.443C145.97 33.3217 145.416 34.038 144.694 34.5917C144.188 34.9769 143.61 35.2718 142.96 35.4764C142.31 35.669 141.576 35.7653 140.758 35.7653H135.449V22.8555Z" fill="currentColor"/>
<path d="M125.24 22.8555H128.436V33.0569H134.232V35.7653H125.24V22.8555Z" fill="currentColor"/>
<path d="M120.268 22.8555H123.464V35.7653H120.268V22.8555Z" fill="currentColor"/>
<path d="M113.198 36C111.381 36 110.021 35.5847 109.118 34.7542C108.227 33.9116 107.782 32.7319 107.782 31.2153V22.8555H110.977V31.3236C110.977 31.9616 111.146 32.4731 111.483 32.8583C111.832 33.2435 112.404 33.4361 113.198 33.4361C113.945 33.4361 114.492 33.2375 114.841 32.8403C115.203 32.431 115.383 31.9074 115.383 31.2694V22.8555H118.579V31.2153C118.579 32.7079 118.128 33.8815 117.225 34.7361C116.334 35.5787 114.992 36 113.198 36Z" fill="currentColor"/>
<path d="M95.7584 22.8555H101.988C102.662 22.8555 103.246 22.9337 103.739 23.0902C104.233 23.2467 104.654 23.4633 105.003 23.7402C105.749 24.3541 106.122 25.1786 106.122 26.2138C106.122 26.8638 105.966 27.3935 105.653 27.8027C105.34 28.212 104.895 28.525 104.317 28.7416V28.7958C105.027 29.0125 105.587 29.4037 105.996 29.9694C106.417 30.5231 106.628 31.1852 106.628 31.9555C106.628 32.6055 106.514 33.1713 106.285 33.6528C106.056 34.1222 105.731 34.5194 105.31 34.8444C104.527 35.4583 103.468 35.7653 102.132 35.7653H95.7584V22.8555ZM101.771 33.2014C102.301 33.2014 102.716 33.0629 103.017 32.7861C103.318 32.5092 103.468 32.1421 103.468 31.6847C103.468 31.1671 103.3 30.7819 102.963 30.5291C102.638 30.2643 102.228 30.1319 101.735 30.1319H98.9182V33.2014H101.771ZM101.518 27.9652C101.976 27.9652 102.349 27.8569 102.638 27.6402C102.927 27.4115 103.071 27.0865 103.071 26.6652C103.071 26.256 102.933 25.943 102.656 25.7263C102.379 25.4976 102.006 25.3833 101.536 25.3833H98.9182V27.9652H101.518Z" fill="currentColor"/>
<path d="M74.4505 4.14069H67.8567C65.3117 4.14069 63.2477 6.20462 63.2477 8.74965V15.8832C63.2477 17.3528 61.4736 18.0905 60.4314 17.0552L48.7876 5.48054C47.924 4.62178 46.7559 4.14069 45.539 4.14069H36.2333C33.6883 4.14069 31.6244 6.20462 31.6244 8.74965V15.8402C31.6244 17.3079 29.8532 18.0466 28.81 17.0142L17.1593 5.47468C16.2967 4.61983 15.1305 4.14069 13.9166 4.14069H4.60894C2.06392 4.14069 0 6.20462 0 8.74965V18.0437C0 19.2664 0.485973 20.4384 1.3496 21.3031L14.4621 34.4156C15.3267 35.2802 16.4987 35.7652 17.7214 35.7652H27.0154C29.5604 35.7652 31.6244 33.7013 31.6244 31.1563V24.0218C31.6244 22.5531 33.3985 21.8144 34.4407 22.8498L46.0894 34.4254C46.953 35.2832 48.1211 35.7652 49.338 35.7652H58.6398C61.1848 35.7652 63.2487 33.7013 63.2487 31.1563V21.6046C63.2487 20.6922 63.9884 19.9525 64.9008 19.9525H74.4524C76.9975 19.9525 79.0614 17.8885 79.0614 15.3435V8.74965C79.0614 6.20462 76.9975 4.14069 74.4524 4.14069H74.4505Z" fill="currentColor"/>
</svg>
