<svg width="150.75" height="18" viewBox="0 0 201 24" fill="none" xmlns="http://www.w3.org/2000/svg">
<path d="M51.1847 1.09668H46.6515C44.9018 1.09668 43.4828 2.51563 43.4828 4.26534V9.16963C43.4828 10.18 42.2631 10.6872 41.5466 9.97538L33.5415 2.01783C32.9477 1.42743 32.1447 1.09668 31.3081 1.09668H24.9104C23.1607 1.09668 21.7417 2.51563 21.7417 4.26534V9.14011C21.7417 10.1491 20.5241 10.657 19.8069 9.9472L11.797 2.0138C11.204 1.42609 10.4023 1.09668 9.56766 1.09668H3.16865C1.41895 1.09668 0 2.51563 0 4.26534V10.655C0 11.4956 0.334107 12.3014 0.92785 12.8958L9.94269 21.9107C10.5371 22.5051 11.3429 22.8386 12.1835 22.8386H18.5731C20.3228 22.8386 21.7417 21.4196 21.7417 19.6699V14.7649C21.7417 13.7552 22.9614 13.2474 23.678 13.9592L31.6865 21.9174C32.2802 22.5071 33.0833 22.8386 33.9199 22.8386H40.3148C42.0645 22.8386 43.4835 21.4196 43.4835 19.6699V13.1031C43.4835 12.4758 43.992 11.9673 44.6193 11.9673H51.1861C52.9358 11.9673 54.3547 10.5483 54.3547 8.79862V4.26534C54.3547 2.51563 52.9358 1.09668 51.1861 1.09668H51.1847Z" fill="#070708"/>
<path d="M72.51 5.15L72.52 5.14L72.67 5.04L72.68 5.04L72.82 4.93L72.83 4.92L72.95 4.80L72.96 4.79L73.07 4.66L73.07 4.65L73.17 4.51L73.18 4.50L73.26 4.35L73.26 4.34L73.33 4.19L73.34 4.17L73.40 4.01L73.40 4.00L73.44 3.83L73.45 3.82L73.48 3.64L73.48 3.63L73.50 3.45L73.50 3.44L73.50 3.25L73.50 3.23L73.49 2.96L73.49 2.94L73.45 2.68L73.45 2.67L73.39 2.43L73.38 2.41L73.29 2.18L73.28 2.17L73.17 1.96L73.16 1.94L73.02 1.75L73.01 1.74L72.85 1.57L72.83 1.55L72.65 1.40L72.63 1.39L72.42 1.25L72.40 1.24L72.17 1.12L72.15 1.12L71.89 1.02L71.88 1.01L71.60 0.93L71.59 0.93L71.28 0.87L71.27 0.86L70.93 0.82L70.93 0.82L70.57 0.79L70.56 0.79L70.18 0.78L70.18 0.78L66.26 0.78L66.25 0.78L66.23 0.78L66.21 0.79L66.20 0.79L66.18 0.80L66.17 0.81L66.16 0.82L66.14 0.84L66.13 0.85L66.13 0.86L66.12 0.88L66.12 0.90L66.11 0.91L66.11 0.93L66.11 10.13L66.11 10.15L66.12 10.16L66.12 10.18L66.13 10.20L66.13 10.21L66.14 10.22L66.16 10.24L66.17 10.25L66.18 10.26L66.20 10.27L66.21 10.27L66.23 10.28L66.25 10.28L66.26 10.28L70.54 10.28L70.55 10.28L70.93 10.27L70.93 10.27L71.29 10.24L71.30 10.24L71.64 10.18L71.65 10.18L71.96 10.10L71.97 10.10L72.27 10.00L72.28 10.00L72.55 9.88L72.57 9.88L72.82 9.74L72.83 9.73L73.06 9.57L73.07 9.56L73.28 9.38L73.29 9.36L73.47 9.17L73.48 9.15L73.63 8.94L73.64 8.92L73.76 8.69L73.77 8.67L73.86 8.42L73.87 8.40L73.94 8.13L73.94 8.12L73.98 7.83L73.98 7.82L74.00 7.51L74.00 7.50L73.99 7.27L73.99 7.26L73.96 7.04L73.96 7.03L73.92 6.82L73.91 6.81L73.85 6.61L73.85 6.60L73.77 6.42L73.77 6.40L73.67 6.23L73.66 6.22L73.55 6.06L73.54 6.04L73.42 5.90L73.41 5.88L73.26 5.75L73.25 5.74L73.09 5.62L73.08 5.61L72.90 5.50L72.89 5.49L72.70 5.40L72.69 5.39L72.49 5.31L72.47 5.31L72.30 5.26L72.34 5.24L72.35 5.23L72.51 5.15ZM71.81 7.89L71.76 7.99L71.70 8.09L71.63 8.17L71.55 8.25L71.46 8.32L71.36 8.38L71.24 8.43L71.10 8.47L70.95 8.51L70.78 8.53L70.59 8.54L70.39 8.55L68.20 8.55L68.20 6.21L70.32 6.21L70.71 6.23L71.04 6.29L71.31 6.38L71.53 6.51L71.69 6.66L71.80 6.85L71.87 7.08L71.90 7.36L71.89 7.51L71.88 7.65L71.85 7.77L71.81 7.89ZM71.29 4.03L71.24 4.11L71.18 4.18L71.11 4.24L71.04 4.29L70.95 4.34L70.84 4.39L70.72 4.42L70.59 4.45L70.44 4.47L70.28 4.48L70.10 4.49L68.20 4.49L68.20 2.51L70.09 2.51L70.26 2.51L70.42 2.53L70.56 2.54L70.69 2.57L70.81 2.60L70.92 2.64L71.01 2.69L71.10 2.74L71.17 2.80L71.23 2.87L71.28 2.94L71.32 3.03L71.35 3.13L71.38 3.24L71.40 3.37L71.40 3.50L71.40 3.63L71.38 3.74L71.36 3.85L71.33 3.94L71.29 4.03ZM85.35 10.28L85.36 10.27L85.38 10.27L85.40 10.26L85.41 10.25L85.42 10.24L85.43 10.22L85.44 10.21L85.45 10.20L85.46 10.18L85.46 10.16L85.46 10.15L85.47 10.13L85.47 0.93L85.46 0.91L85.46 0.90L85.46 0.88L85.45 0.86L85.44 0.85L85.43 0.84L85.42 0.82L85.41 0.81L85.40 0.80L85.38 0.79L85.36 0.79L85.35 0.78L85.33 0.78L85.32 0.78L83.52 0.78L83.51 0.78L83.49 0.78L83.47 0.79L83.46 0.79L83.44 0.80L83.43 0.81L83.42 0.82L83.41 0.84L83.40 0.85L83.39 0.86L83.38 0.88L83.38 0.90L83.37 0.91L83.37 0.93L83.37 10.13L83.37 10.15L83.38 10.16L83.38 10.18L83.39 10.20L83.40 10.21L83.41 10.22L83.42 10.24L83.43 10.25L83.44 10.26L83.46 10.27L83.47 10.27L83.49 10.28L83.51 10.28L83.52 10.28L85.32 10.28L85.33 10.28L85.35 10.28ZM93.04 10.28L93.06 10.27L93.08 10.27L93.09 10.26L93.10 10.25L93.12 10.24L93.13 10.22L93.14 10.21L93.15 10.20L93.15 10.18L93.16 10.16L93.16 10.15L93.16 10.13L93.16 8.64L93.16 8.62L93.16 8.61L93.15 8.59L93.15 8.58L93.14 8.56L93.13 8.55L93.12 8.54L93.10 8.52L93.09 8.51L93.08 8.51L93.06 8.50L93.04 8.50L93.03 8.49L93.01 8.49L88.57 8.49L88.57 0.93L88.57 0.91L88.57 0.90L88.56 0.88L88.56 0.86L88.55 0.85L88.54 0.84L88.53 0.82L88.51 0.81L88.50 0.80L88.49 0.79L88.47 0.79L88.45 0.78L88.44 0.78L88.42 0.78L86.63 0.78L86.61 0.78L86.60 0.78L86.58 0.79L86.56 0.79L86.55 0.80L86.54 0.81L86.52 0.82L86.51 0.84L86.50 0.85L86.49 0.86L86.49 0.88L86.48 0.90L86.48 0.91L86.48 0.93L86.48 10.13L86.48 10.15L86.48 10.16L86.49 10.18L86.49 10.20L86.50 10.21L86.51 10.22L86.52 10.24L86.54 10.25L86.55 10.26L86.56 10.27L86.58 10.27L86.60 10.28L86.61 10.28L86.63 10.28L93.01 10.28L93.03 10.28L93.04 10.28ZM100.54 2.56L100.56 2.56L100.57 2.55L100.59 2.55L100.60 2.54L100.61 2.52L100.62 2.51L100.63 2.50L100.64 2.48L100.65 2.47L100.65 2.45L100.66 2.44L100.66 2.42L100.66 0.93L100.66 0.91L100.65 0.90L100.65 0.88L100.64 0.86L100.63 0.85L100.62 0.84L100.61 0.82L100.60 0.81L100.59 0.80L100.57 0.79L100.56 0.79L100.54 0.78L100.52 0.78L100.51 0.78L93.18 0.78L93.17 0.78L93.15 0.78L93.13 0.79L93.12 0.79L93.10 0.80L93.09 0.81L93.08 0.82L93.07 0.84L93.06 0.85L93.05 0.86L93.04 0.88L93.04 0.90L93.03 0.91L93.03 0.93L93.03 2.42L93.03 2.44L93.04 2.45L93.04 2.47L93.05 2.48L93.06 2.50L93.07 2.51L93.08 2.52L93.09 2.54L93.10 2.55L93.12 2.55L93.13 2.56L93.15 2.56L93.17 2.57L93.18 2.57L95.80 2.57L95.80 10.13L95.80 10.15L95.80 10.16L95.80 10.18L95.81 10.20L95.82 10.21L95.83 10.22L95.84 10.24L95.85 10.25L95.87 10.26L95.88 10.27L95.90 10.27L95.91 10.28L95.93 10.28L95.95 10.28L97.74 10.28L97.75 10.28L97.77 10.28L97.79 10.27L97.80 10.27L97.82 10.26L97.83 10.25L97.84 10.24L97.86 10.22L97.86 10.21L97.87 10.20L97.88 10.18L97.88 10.16L97.89 10.15L97.89 10.13L97.89 2.57L100.51 2.57L100.52 2.57L100.54 2.56ZM105.58 0.90L105.58 0.88L105.57 0.87L105.56 0.85L105.55 0.84L105.54 0.83L105.53 0.81L105.51 0.80L105.50 0.80L105.48 0.79L105.47 0.78L105.45 0.78L105.43 0.78L103.62 0.78L103.60 0.78L103.58 0.78L103.57 0.79L103.55 0.80L103.54 0.80L103.52 0.81L103.51 0.82L103.50 0.84L103.49 0.85L103.48 0.87L103.48 0.88L103.47 0.90L103.47 0.91L103.47 0.93L103.47 0.95L103.47 0.96L105.68 10.16L105.68 10.18L105.69 10.20L105.70 10.21L105.71 10.22L105.72 10.24L105.73 10.25L105.74 10.26L105.76 10.27L105.77 10.27L105.79 10.28L105.81 10.28L105.82 10.28L107.95 10.28L107.96 10.28L107.98 10.28L108.00 10.27L108.01 10.26L108.03 10.26L108.04 10.25L108.05 10.24L108.07 10.22L108.08 10.21L108.08 10.19L108.09 10.18L108.09 10.16L108.38 8.86L108.63 7.71L108.84 6.72L109.02 5.90L109.16 5.23L109.27 4.72L109.27 4.72L109.35 4.37L109.35 4.37L109.39 4.18L109.39 4.18L109.41 4.06L109.41 4.06L109.44 3.93L109.44 3.92L109.46 3.78L109.46 3.78L109.47 3.75L109.49 3.87L109.49 3.87L109.54 4.12L109.54 4.12L109.59 4.36L109.59 4.36L109.64 4.60L109.64 4.60L109.69 4.84L110.85 10.16L110.85 10.18L110.86 10.19L110.87 10.21L110.88 10.22L110.89 10.24L110.90 10.25L110.92 10.26L110.93 10.26L110.95 10.27L110.96 10.28L110.98 10.28L111.00 10.28L113.12 10.28L113.14 10.28L113.15 10.28L113.17 10.27L113.19 10.27L113.20 10.26L113.21 10.25L113.23 10.24L113.24 10.22L113.25 10.21L113.26 10.20L113.26 10.18L113.27 10.17L115.48 0.97L115.48 0.95L115.48 0.93L115.48 0.91L115.48 0.90L115.47 0.88L115.47 0.87L115.46 0.85L115.45 0.84L115.44 0.82L115.43 0.81L115.41 0.80L115.40 0.80L115.38 0.79L115.37 0.78L115.35 0.78L115.33 0.78L113.52 0.78L113.50 0.78L113.48 0.78L113.47 0.79L113.45 0.80L113.43 0.80L113.42 0.81L113.41 0.83L113.40 0.84L113.39 0.85L113.38 0.87L113.37 0.88L113.37 0.90L112.34 6.02L112.03 7.46L112.02 7.40L112.02 7.40L111.95 7.03L111.95 7.03L111.90 6.70L111.90 6.70L111.85 6.41L111.85 6.41L111.80 6.16L111.80 6.16L111.76 5.96L111.76 5.95L111.73 5.80L111.73 5.79L110.64 0.90L110.64 0.88L110.63 0.87L110.63 0.85L110.62 0.84L110.60 0.82L110.59 0.81L110.58 0.80L110.56 0.80L110.55 0.79L110.53 0.78L110.51 0.78L110.50 0.78L108.49 0.78L108.48 0.78L108.46 0.78L108.44 0.79L108.43 0.80L108.41 0.80L108.40 0.81L108.39 0.82L108.38 0.84L108.37 0.85L108.36 0.87L108.35 0.88L108.35 0.90L108.10 2.04L107.88 3.06L107.68 3.95L107.68 3.95L107.52 4.72L107.52 4.72L107.38 5.36L107.38 5.36L107.27 5.88L107.27 5.88L107.19 6.28L107.19 6.28L107.14 6.55L107.14 6.55L107.09 6.75L107.05 6.96L107.01 7.18L106.97 7.39L106.95 7.51L106.82 6.84L106.82 6.84L105.58 0.90ZM117.65 10.28L117.67 10.27L117.68 10.27L117.70 10.26L117.71 10.25L117.72 10.24L117.73 10.22L117.74 10.21L117.75 10.20L117.76 10.18L117.76 10.16L117.77 10.15L117.77 10.13L117.77 0.93L117.77 0.91L117.76 0.90L117.76 0.88L117.75 0.86L117.74 0.85L117.73 0.84L117.72 0.82L117.71 0.81L117.70 0.80L117.68 0.79L117.67 0.79L117.65 0.78L117.63 0.78L117.62 0.78L115.83 0.78L115.81 0.78L115.79 0.78L115.78 0.79L115.76 0.79L115.75 0.80L115.73 0.81L115.72 0.82L115.71 0.84L115.70 0.85L115.69 0.86L115.68 0.88L115.68 0.90L115.68 0.91L115.68 0.93L115.68 10.13L115.68 10.15L115.68 10.16L115.68 10.18L115.69 10.20L115.70 10.21L115.71 10.22L115.72 10.24L115.73 10.25L115.75 10.26L115.76 10.27L115.78 10.27L115.79 10.28L115.81 10.28L115.83 10.28L117.62 10.28L117.63 10.28L117.65 10.28ZM125.60 2.56L125.61 2.56L125.63 2.55L125.64 2.55L125.66 2.54L125.67 2.52L125.68 2.51L125.69 2.50L125.70 2.48L125.70 2.47L125.71 2.45L125.71 2.44L125.71 2.42L125.71 0.93L125.71 0.91L125.71 0.90L125.70 0.88L125.70 0.86L125.69 0.85L125.68 0.84L125.67 0.82L125.66 0.81L125.64 0.80L125.63 0.79L125.61 0.79L125.60 0.78L125.58 0.78L125.56 0.78L118.24 0.78L118.22 0.78L118.21 0.78L118.19 0.79L118.17 0.79L118.16 0.80L118.14 0.81L118.13 0.82L118.12 0.84L118.11 0.85L118.10 0.86L118.10 0.88L118.09 0.90L118.09 0.91L118.09 0.93L118.09 2.42L118.09 2.44L118.09 2.45L118.10 2.47L118.10 2.48L118.11 2.50L118.12 2.51L118.13 2.52L118.14 2.54L118.16 2.55L118.17 2.55L118.19 2.56L118.21 2.56L118.22 2.57L118.24 2.57L120.85 2.57L120.85 10.13L120.85 10.15L120.86 10.16L120.86 10.18L120.87 10.20L120.87 10.21L120.88 10.22L120.90 10.24L120.91 10.25L120.92 10.26L120.94 10.27L120.95 10.27L120.97 10.28L120.98 10.28L121.00 10.28L122.79 10.28L122.81 10.28L122.83 10.28L122.84 10.27L122.86 10.27L122.87 10.26L122.89 10.25L122.90 10.24L122.91 10.22L122.92 10.21L122.93 10.20L122.93 10.18L122.94 10.16L122.94 10.15L122.94 10.13L122.94 2.57L125.56 2.57L125.58 2.57L125.60 2.56ZM133.54 10.27L133.55 10.27L133.57 10.26L133.58 10.25L133.59 10.24L133.61 10.22L133.62 10.21L133.62 10.20L133.63 10.18L133.63 10.16L133.64 10.15L133.64 10.13L133.64 0.93L133.64 0.91L133.63 0.90L133.63 0.88L133.62 0.86L133.62 0.85L133.61 0.84L133.59 0.82L133.58 0.81L133.57 0.80L133.55 0.79L133.54 0.79L133.52 0.78L133.51 0.78L133.49 0.78L131.70 0.78L131.68 0.78L131.66 0.78L131.65 0.79L131.63 0.79L131.62 0.80L131.60 0.81L131.59 0.82L131.58 0.84L131.57 0.85L131.56 0.86L131.56 0.88L131.55 0.90L131.55 0.91L131.55 0.93L131.55 4.44L128.12 4.44L128.12 0.93L128.12 0.91L128.11 0.90L128.11 0.88L128.10 0.86L128.10 0.85L128.09 0.84L128.07 0.82L128.06 0.81L128.05 0.80L128.03 0.79L128.02 0.79L128.00 0.78L127.99 0.78L127.97 0.78L126.18 0.78L126.16 0.78L126.14 0.78L126.13 0.79L126.11 0.79L126.10 0.80L126.08 0.81L126.07 0.82L126.06 0.84L126.05 0.85L126.04 0.86L126.04 0.88L126.03 0.90L126.03 0.91L126.03 0.93L126.03 10.13L126.03 10.15L126.03 10.16L126.04 10.18L126.04 10.20L126.05 10.21L126.06 10.22L126.07 10.24L126.08 10.25L126.10 10.26L126.11 10.27L126.13 10.27L126.14 10.28L126.16 10.28L126.18 10.28L127.97 10.28L127.99 10.28L128.00 10.28L128.02 10.27L128.03 10.27L128.05 10.26L128.06 10.25L128.07 10.24L128.09 10.22L128.10 10.21L128.10 10.20L128.11 10.18L128.11 10.16L128.12 10.15L128.12 10.13L128.12 6.34L131.55 6.34L131.55 10.13L131.55 10.15L131.55 10.16L131.56 10.18L131.56 10.20L131.57 10.21L131.58 10.22L131.59 10.24L131.60 10.25L131.62 10.26L131.63 10.27L131.65 10.27L131.66 10.28L131.68 10.28L131.70 10.28L133.49 10.28L133.51 10.28L133.52 10.28L133.54 10.27ZM79.34 10.35L79.73 10.27L79.74 10.27L80.11 10.16L80.12 10.16L80.46 10.02L80.48 10.02L80.79 9.85L80.81 9.84L81.10 9.65L81.11 9.64L81.38 9.41L81.39 9.40L81.62 9.15L81.63 9.13L81.84 8.86L81.85 8.84L82.02 8.54L82.03 8.52L82.17 8.20L82.18 8.18L82.28 7.83L82.29 7.82L82.37 7.44L82.37 7.43L82.42 7.03L82.42 7.02L82.43 6.59L82.43 6.58L82.43 0.93L82.43 0.91L82.43 0.90L82.42 0.88L82.42 0.86L82.41 0.85L82.40 0.84L82.39 0.82L82.38 0.81L82.36 0.80L82.35 0.79L82.33 0.79L82.32 0.78L82.30 0.78L82.28 0.78L80.49 0.78L80.47 0.78L80.46 0.78L80.44 0.79L80.43 0.79L80.41 0.80L80.40 0.81L80.39 0.82L80.37 0.84L80.36 0.85L80.36 0.86L80.35 0.88L80.35 0.90L80.34 0.91L80.34 0.93L80.34 6.46L80.33 6.73L80.31 6.97L80.27 7.19L80.22 7.40L80.15 7.59L80.07 7.76L79.97 7.92L79.86 8.06L79.74 8.19L79.60 8.30L79.45 8.39L79.29 8.47L79.12 8.52L78.93 8.57L78.72 8.59L78.50 8.60L78.29 8.59L78.09 8.57L77.90 8.53L77.73 8.47L77.58 8.40L77.44 8.31L77.31 8.21L77.20 8.09L77.09 7.95L77.00 7.80L76.93 7.63L76.86 7.45L76.81 7.25L76.78 7.03L76.76 6.79L76.75 6.53L76.75 0.93L76.75 0.91L76.75 0.90L76.74 0.88L76.73 0.86L76.73 0.85L76.72 0.84L76.71 0.82L76.69 0.81L76.68 0.80L76.66 0.79L76.65 0.79L76.63 0.78L76.62 0.78L76.60 0.78L74.81 0.78L74.79 0.78L74.77 0.78L74.76 0.79L74.74 0.79L74.73 0.80L74.71 0.81L74.70 0.82L74.69 0.84L74.68 0.85L74.67 0.86L74.67 0.88L74.66 0.90L74.66 0.91L74.66 0.93L74.66 6.68L74.66 6.69L74.67 7.11L74.67 7.12L74.72 7.51L74.72 7.52L74.79 7.89L74.80 7.91L74.90 8.25L74.90 8.26L75.04 8.58L75.04 8.60L75.20 8.89L75.21 8.91L75.40 9.18L75.41 9.19L75.63 9.43L75.65 9.45L75.89 9.66L75.91 9.67L76.18 9.86L76.20 9.87L76.50 10.03L76.51 10.04L76.84 10.17L76.85 10.17L77.20 10.27L77.21 10.28L77.59 10.35L77.60 10.35L78.01 10.40L78.02 10.40L78.45 10.41L78.46 10.41L78.90 10.40L78.91 10.39L79.33 10.35L79.34 10.35Z" fill="#070708"/>
<path d="M86.04 17.29L85.96 16.82L85.95 16.81L85.83 16.36L85.82 16.35L85.66 15.93L85.66 15.92L85.46 15.53L85.45 15.52L85.22 15.16L85.21 15.15L84.94 14.82L84.93 14.81L84.63 14.52L84.62 14.50L84.29 14.25L84.27 14.24L83.92 14.02L83.90 14.02L83.52 13.84L83.50 13.83L83.09 13.70L83.08 13.69L82.64 13.59L82.63 13.59L82.16 13.53L82.15 13.53L81.65 13.51L81.64 13.51L81.14 13.53L81.13 13.53L80.67 13.59L80.65 13.59L80.21 13.69L80.20 13.69L79.79 13.83L79.77 13.84L79.39 14.01L79.37 14.02L79.02 14.23L79.00 14.24L78.68 14.49L78.66 14.51L78.37 14.80L78.35 14.81L78.09 15.13L78.08 15.15L77.84 15.50L77.84 15.52L77.64 15.90L77.63 15.92L77.47 16.33L77.47 16.35L77.34 16.79L77.34 16.81L77.25 17.28L77.25 17.30L77.20 17.80L77.20 17.81L77.18 18.35L77.18 18.36L77.20 18.90L77.20 18.91L77.25 19.42L77.25 19.44L77.34 19.92L77.34 19.93L77.47 20.38L77.47 20.40L77.63 20.82L77.64 20.83L77.84 21.22L77.85 21.24L78.08 21.60L78.09 21.61L78.36 21.95L78.37 21.96L78.67 22.26L78.68 22.27L79.01 22.53L79.02 22.54L79.37 22.76L79.39 22.77L79.77 22.95L79.79 22.95L80.20 23.09L80.21 23.10L80.65 23.20L80.66 23.20L81.12 23.26L81.14 23.26L81.63 23.28L81.64 23.28L81.96 23.27L81.97 23.27L82.28 23.24L82.29 23.24L82.59 23.20L82.60 23.20L82.89 23.13L82.90 23.13L83.19 23.05L83.20 23.05L83.47 22.95L83.48 22.94L83.74 22.82L83.75 22.82L84.00 22.68L84.01 22.68L84.25 22.53L84.26 22.52L84.48 22.35L84.49 22.34L84.70 22.16L84.71 22.15L84.91 21.95L84.91 21.94L85.10 21.73L85.10 21.72L85.27 21.49L85.28 21.48L85.43 21.23L85.43 21.22L85.57 20.95L85.58 20.95L85.70 20.67L85.71 20.66L85.81 20.37L85.82 20.36L85.91 20.06L85.91 20.05L85.98 19.74L85.98 19.73L86.04 19.41L86.04 19.40L86.08 19.07L86.09 19.06L86.11 18.72L86.11 18.71L86.12 18.36L86.12 18.35L86.10 17.82L86.10 17.81L86.05 17.31L86.04 17.29ZM83.83 19.70L83.75 19.98L83.64 20.23L83.51 20.47L83.37 20.68L83.21 20.86L83.03 21.02L82.84 21.16L82.64 21.27L82.41 21.35L82.17 21.42L81.91 21.45L81.63 21.47L81.37 21.45L81.12 21.41L80.88 21.35L80.66 21.26L80.46 21.15L80.26 21.01L80.09 20.84L79.92 20.65L79.77 20.44L79.64 20.20L79.53 19.95L79.44 19.67L79.37 19.37L79.32 19.06L79.29 18.72L79.28 18.36L79.29 18.00L79.32 17.67L79.37 17.35L79.44 17.06L79.53 16.79L79.64 16.54L79.76 16.32L79.91 16.11L80.07 15.93L80.24 15.77L80.43 15.63L80.64 15.52L80.87 15.44L81.11 15.38L81.37 15.34L81.65 15.33L81.92 15.34L82.17 15.38L82.41 15.44L82.63 15.53L82.84 15.64L83.03 15.77L83.21 15.93L83.37 16.12L83.51 16.32L83.64 16.55L83.74 16.80L83.83 17.07L83.90 17.36L83.95 17.67L83.98 18.00L83.99 18.36L83.98 18.73L83.95 19.08L83.90 19.40L83.83 19.70ZM127.03 16.82L127.03 16.81L126.91 16.36L126.90 16.35L126.74 15.93L126.73 15.92L126.54 15.53L126.53 15.52L126.30 15.16L126.29 15.15L126.02 14.82L126.01 14.81L125.71 14.52L125.69 14.50L125.37 14.25L125.35 14.24L125.00 14.02L124.98 14.02L124.60 13.84L124.58 13.83L124.17 13.70L124.16 13.69L123.72 13.59L123.70 13.59L123.24 13.53L123.22 13.53L122.73 13.51L122.72 13.51L122.22 13.53L122.21 13.53L121.74 13.59L121.73 13.59L121.29 13.69L121.28 13.69L120.87 13.83L120.85 13.84L120.47 14.01L120.45 14.02L120.10 14.23L120.08 14.24L119.76 14.49L119.74 14.51L119.44 14.80L119.43 14.81L119.16 15.13L119.15 15.15L118.92 15.50L118.92 15.52L118.72 15.90L118.71 15.92L118.55 16.33L118.55 16.35L118.42 16.79L118.42 16.81L118.33 17.28L118.33 17.30L118.28 17.80L118.27 17.81L118.26 18.35L118.26 18.36L118.27 18.90L118.28 18.91L118.33 19.42L118.33 19.44L118.42 19.92L118.42 19.93L118.55 20.38L118.55 20.40L118.71 20.82L118.72 20.83L118.92 21.22L118.92 21.24L119.16 21.60L119.17 21.61L119.43 21.95L119.45 21.96L119.75 22.26L119.76 22.27L120.08 22.53L120.10 22.54L120.45 22.76L120.47 22.77L120.85 22.95L120.87 22.95L121.27 23.09L121.29 23.10L121.72 23.20L121.74 23.20L122.20 23.26L122.22 23.26L122.71 23.28L122.72 23.28L123.04 23.27L123.05 23.27L123.36 23.24L123.37 23.24L123.67 23.20L123.68 23.20L123.97 23.13L123.98 23.13L124.26 23.05L124.27 23.05L124.55 22.95L124.56 22.94L124.82 22.82L124.83 22.82L125.08 22.68L125.09 22.68L125.33 22.53L125.34 22.52L125.56 22.35L125.57 22.34L125.78 22.16L125.79 22.15L125.98 21.95L125.99 21.94L126.17 21.73L126.18 21.72L126.35 21.49L126.35 21.48L126.51 21.23L126.51 21.22L126.65 20.95L126.66 20.95L126.78 20.67L126.78 20.66L126.89 20.37L126.89 20.36L126.98 20.06L126.99 20.05L127.06 19.74L127.06 19.73L127.12 19.41L127.12 19.40L127.16 19.07L127.16 19.06L127.19 18.72L127.19 18.71L127.20 18.36L127.20 18.35L127.18 17.82L127.18 17.81L127.13 17.31L127.12 17.29L127.03 16.82ZM124.82 19.98L124.72 20.23L124.59 20.47L124.45 20.68L124.29 20.86L124.11 21.02L123.92 21.16L123.71 21.27L123.49 21.35L123.25 21.42L122.99 21.45L122.71 21.47L122.44 21.45L122.19 21.41L121.96 21.35L121.74 21.26L121.53 21.15L121.34 21.01L121.16 20.84L121.00 20.65L120.85 20.44L120.72 20.20L120.61 19.95L120.52 19.67L120.45 19.37L120.40 19.06L120.37 18.72L120.36 18.36L120.37 18.00L120.40 17.67L120.45 17.35L120.52 17.06L120.61 16.79L120.71 16.54L120.84 16.32L120.98 16.11L121.15 15.93L121.32 15.77L121.51 15.63L121.72 15.52L121.94 15.44L122.19 15.38L122.45 15.34L122.72 15.33L123.00 15.34L123.25 15.38L123.49 15.44L123.71 15.53L123.92 15.64L124.11 15.77L124.28 15.93L124.45 16.12L124.59 16.32L124.72 16.55L124.82 16.80L124.91 17.07L124.98 17.36L125.03 17.67L125.06 18.00L125.07 18.36L125.06 18.73L125.03 19.08L124.98 19.40L124.91 19.70L124.82 19.98ZM67.40 13.75L67.39 13.74L67.39 13.72L67.38 13.71L67.37 13.70L67.35 13.68L67.34 13.67L67.32 13.67L67.31 13.66L67.29 13.65L67.27 13.65L67.26 13.65L65.44 13.65L65.43 13.65L65.41 13.65L65.39 13.66L65.38 13.67L65.36 13.67L65.35 13.68L65.34 13.69L65.32 13.71L65.31 13.72L65.31 13.74L65.30 13.75L65.30 13.77L65.29 13.78L65.29 13.80L65.29 13.82L65.30 13.83L67.50 23.03L67.51 23.05L67.51 23.07L67.52 23.08L67.53 23.09L67.54 23.11L67.55 23.12L67.57 23.13L67.58 23.14L67.60 23.14L67.61 23.15L67.63 23.15L67.65 23.15L69.77 23.15L69.79 23.15L69.81 23.15L69.82 23.14L69.84 23.13L69.85 23.13L69.87 23.12L69.88 23.11L69.89 23.09L69.90 23.08L69.91 23.06L69.91 23.05L69.92 23.03L70.20 21.73L70.45 20.58L70.66 19.59L70.84 18.77L70.99 18.10L71.10 17.59L71.10 17.59L71.17 17.24L71.17 17.24L71.21 17.05L71.21 17.05L71.24 16.93L71.24 16.93L71.26 16.80L71.26 16.79L71.29 16.65L71.29 16.65L71.29 16.62L71.32 16.74L71.32 16.74L71.36 16.99L71.36 16.99L71.41 17.23L71.41 17.23L71.46 17.47L71.46 17.47L71.51 17.71L72.67 23.03L72.68 23.05L72.68 23.06L72.69 23.08L72.70 23.09L72.71 23.11L72.73 23.12L72.74 23.13L72.75 23.13L72.77 23.14L72.79 23.15L72.80 23.15L72.82 23.15L74.95 23.15L74.96 23.15L74.98 23.15L74.99 23.14L75.01 23.14L75.02 23.13L75.04 23.12L75.05 23.11L75.06 23.09L75.07 23.08L75.08 23.07L75.09 23.05L75.09 23.04L77.30 13.84L77.30 13.82L77.31 13.80L77.30 13.78L77.30 13.77L77.30 13.75L77.29 13.74L77.28 13.72L77.27 13.71L77.26 13.69L77.25 13.68L77.24 13.67L77.22 13.67L77.21 13.66L77.19 13.65L77.17 13.65L77.16 13.65L75.34 13.65L75.32 13.65L75.31 13.65L75.29 13.66L75.27 13.67L75.26 13.67L75.25 13.68L75.23 13.70L75.22 13.71L75.21 13.72L75.20 13.74L75.20 13.75L75.19 13.77L74.16 18.89L73.85 20.33L73.84 20.27L73.84 20.27L73.78 19.90L73.78 19.90L73.72 19.57L73.72 19.57L73.67 19.28L73.67 19.28L73.63 19.03L73.62 19.03L73.58 18.83L73.58 18.82L73.55 18.67L73.55 18.66L72.47 13.77L72.46 13.75L72.46 13.74L72.45 13.72L72.44 13.71L72.43 13.69L72.42 13.68L72.40 13.67L72.39 13.67L72.37 13.66L72.36 13.65L72.34 13.65L72.32 13.65L70.32 13.65L70.30 13.65L70.28 13.65L70.27 13.66L70.25 13.67L70.24 13.67L70.22 13.68L70.21 13.69L70.20 13.71L70.19 13.72L70.18 13.74L70.18 13.75L70.17 13.77L69.92 14.91L69.70 15.93L69.51 16.82L69.51 16.82L69.34 17.59L69.34 17.59L69.21 18.23L69.21 18.23L69.10 18.75L69.10 18.75L69.01 19.15L69.01 19.15L68.96 19.42L68.96 19.42L68.92 19.62L68.88 19.83L68.84 20.05L68.80 20.26L68.77 20.38L68.64 19.71L68.64 19.71L67.40 13.77L67.40 13.75ZM94.93 23.14L94.95 23.13L94.96 23.12L94.97 23.11L94.98 23.09L94.99 23.08L95.00 23.07L95.01 23.05L95.01 23.04L95.02 23.02L95.02 23.00L95.02 22.99L95.01 22.97L95.01 22.95L95.00 22.94L95.00 22.92L92.78 19.22L92.81 19.22L92.82 19.21L93.02 19.13L93.03 19.13L93.22 19.04L93.23 19.03L93.41 18.92L93.42 18.91L93.59 18.79L93.60 18.78L93.75 18.64L93.76 18.63L93.91 18.48L93.92 18.47L94.05 18.30L94.06 18.29L94.18 18.11L94.18 18.10L94.29 17.92L94.29 17.90L94.38 17.71L94.38 17.70L94.46 17.49L94.46 17.48L94.52 17.27L94.52 17.26L94.56 17.04L94.56 17.02L94.58 16.80L94.58 16.78L94.59 16.55L94.59 16.54L94.58 16.21L94.58 16.20L94.54 15.90L94.54 15.88L94.47 15.60L94.47 15.59L94.38 15.32L94.37 15.31L94.25 15.06L94.24 15.05L94.10 14.82L94.09 14.81L93.92 14.60L93.91 14.59L93.71 14.40L93.70 14.39L93.48 14.22L93.47 14.21L93.23 14.07L93.21 14.06L92.95 13.94L92.94 13.94L92.65 13.84L92.64 13.83L92.33 13.75L92.32 13.75L91.99 13.70L91.98 13.69L91.63 13.66L91.62 13.66L91.25 13.65L91.25 13.65L86.97 13.65L86.96 13.65L86.94 13.65L86.92 13.66L86.91 13.66L86.89 13.67L86.88 13.68L86.87 13.69L86.86 13.71L86.85 13.72L86.84 13.73L86.83 13.75L86.83 13.77L86.82 13.78L86.82 13.80L86.82 23.00L86.82 23.02L86.83 23.03L86.83 23.05L86.84 23.07L86.85 23.08L86.86 23.09L86.87 23.11L86.88 23.12L86.89 23.13L86.91 23.14L86.92 23.14L86.94 23.15L86.96 23.15L86.97 23.15L88.76 23.15L88.78 23.15L88.80 23.15L88.81 23.14L88.83 23.14L88.84 23.13L88.86 23.12L88.87 23.11L88.88 23.09L88.89 23.08L88.90 23.07L88.91 23.05L88.91 23.03L88.91 23.02L88.91 23.00L88.91 19.66L90.78 19.66L92.72 23.07L92.73 23.09L92.74 23.10L92.75 23.11L92.77 23.13L92.78 23.13L92.80 23.14L92.82 23.15L92.83 23.15L92.85 23.15L94.87 23.15L94.88 23.15L94.90 23.15L94.92 23.14L94.93 23.14ZM92.35 17.26L92.29 17.36L92.23 17.45L92.15 17.54L92.06 17.61L91.96 17.68L91.85 17.73L91.72 17.78L91.59 17.81L91.44 17.84L91.28 17.86L91.11 17.86L88.91 17.86L88.91 15.45L91.06 15.45L91.41 15.47L91.71 15.52L91.95 15.62L92.15 15.74L92.29 15.90L92.40 16.10L92.47 16.34L92.49 16.62L92.48 16.77L92.47 16.91L92.44 17.04L92.40 17.15L92.35 17.26ZM103.69 23.14L103.70 23.14L103.72 23.13L103.73 23.12L103.74 23.11L103.75 23.10L103.76 23.08L103.77 23.07L103.78 23.05L103.78 23.04L103.79 23.02L103.79 23.00L103.79 22.99L103.79 22.97L103.78 22.95L103.78 22.94L103.77 22.92L103.76 22.91L99.88 17.70L103.45 13.90L103.46 13.89L103.47 13.88L103.48 13.86L103.48 13.85L103.49 13.83L103.49 13.81L103.49 13.80L103.49 13.78L103.49 13.76L103.48 13.75L103.47 13.73L103.47 13.72L103.46 13.71L103.45 13.69L103.43 13.68L103.42 13.67L103.40 13.66L103.39 13.66L103.37 13.65L103.36 13.65L103.34 13.65L101.25 13.65L101.23 13.65L101.22 13.65L101.20 13.66L101.18 13.67L101.17 13.68L101.15 13.69L101.14 13.70L97.55 17.59L97.55 13.80L97.54 13.78L97.54 13.77L97.54 13.75L97.53 13.73L97.52 13.72L97.51 13.71L97.50 13.69L97.49 13.68L97.48 13.67L97.46 13.66L97.45 13.66L97.43 13.65L97.41 13.65L97.40 13.65L95.60 13.65L95.59 13.65L95.57 13.65L95.55 13.66L95.54 13.66L95.52 13.67L95.51 13.68L95.50 13.69L95.49 13.71L95.48 13.72L95.47 13.73L95.46 13.75L95.46 13.77L95.46 13.78L95.45 13.80L95.45 23.00L95.46 23.02L95.46 23.03L95.46 23.05L95.47 23.07L95.48 23.08L95.49 23.09L95.50 23.11L95.51 23.12L95.52 23.13L95.54 23.14L95.55 23.14L95.57 23.15L95.59 23.15L95.60 23.15L97.40 23.15L97.41 23.15L97.43 23.15L97.45 23.14L97.46 23.14L97.48 23.13L97.49 23.12L97.50 23.11L97.51 23.09L97.52 23.08L97.53 23.07L97.54 23.05L97.54 23.03L97.54 23.02L97.55 23.00L97.55 19.71L98.42 18.99L101.40 23.09L101.41 23.10L101.43 23.11L101.44 23.12L101.46 23.13L101.47 23.14L101.49 23.15L101.51 23.15L101.52 23.15L103.64 23.15L103.65 23.15L103.67 23.15L103.69 23.14ZM110.59 15.43L110.61 15.42L110.62 15.42L110.64 15.41L110.65 15.39L110.66 15.38L110.67 15.37L110.68 15.35L110.69 15.34L110.69 15.32L110.69 15.31L110.69 15.29L110.69 13.80L110.69 13.78L110.69 13.77L110.69 13.75L110.68 13.73L110.67 13.72L110.66 13.71L110.65 13.69L110.64 13.68L110.62 13.67L110.61 13.66L110.59 13.66L110.58 13.65L110.56 13.65L110.54 13.65L104.24 13.65L104.22 13.65L104.20 13.65L104.19 13.66L104.17 13.66L104.16 13.67L104.14 13.68L104.13 13.69L104.12 13.71L104.11 13.72L104.10 13.73L104.09 13.75L104.09 13.77L104.09 13.78L104.09 13.80L104.09 23.00L104.09 23.02L104.09 23.03L104.09 23.05L104.10 23.07L104.11 23.08L104.12 23.09L104.13 23.11L104.14 23.12L104.16 23.13L104.17 23.14L104.19 23.14L104.20 23.15L104.22 23.15L104.24 23.15L106.03 23.15L106.04 23.15L106.06 23.15L106.08 23.14L106.09 23.14L106.11 23.13L106.12 23.12L106.13 23.11L106.14 23.09L106.15 23.08L106.16 23.07L106.17 23.05L106.17 23.03L106.18 23.02L106.18 23.00L106.18 19.77L110.40 19.77L110.42 19.77L110.44 19.77L110.45 19.77L110.47 19.76L110.48 19.75L110.50 19.74L110.51 19.73L110.52 19.72L110.53 19.70L110.54 19.69L110.55 19.67L110.55 19.66L110.55 19.64L110.55 19.62L110.55 18.14L110.55 18.12L110.55 18.10L110.55 18.09L110.54 18.07L110.53 18.06L110.52 18.04L110.51 18.03L110.50 18.02L110.48 18.01L110.47 18.00L110.45 17.99L110.44 17.99L110.42 17.99L110.40 17.99L106.18 17.99L106.18 15.44L110.54 15.44L110.56 15.44L110.58 15.43L110.59 15.43ZM117.91 23.14L117.93 23.14L117.94 23.13L117.96 23.12L117.97 23.11L117.98 23.09L117.99 23.08L118.00 23.07L118.01 23.05L118.01 23.03L118.01 23.02L118.01 23.00L118.01 21.51L118.01 21.49L118.01 21.48L118.01 21.46L118.00 21.45L117.99 21.43L117.98 21.42L117.97 21.41L117.96 21.39L117.94 21.38L117.93 21.38L117.91 21.37L117.90 21.37L117.88 21.36L117.86 21.36L113.42 21.36L113.42 13.80L113.42 13.78L113.42 13.77L113.41 13.75L113.41 13.73L113.40 13.72L113.39 13.71L113.38 13.69L113.37 13.68L113.35 13.67L113.34 13.66L113.32 13.66L113.31 13.65L113.29 13.65L113.27 13.65L111.48 13.65L111.47 13.65L111.45 13.65L111.43 13.66L111.42 13.66L111.40 13.67L111.39 13.68L111.38 13.69L111.36 13.71L111.35 13.72L111.35 13.73L111.34 13.75L111.34 13.77L111.33 13.78L111.33 13.80L111.33 23.00L111.33 23.02L111.34 23.03L111.34 23.05L111.35 23.07L111.35 23.08L111.36 23.09L111.38 23.11L111.39 23.12L111.40 23.13L111.42 23.14L111.43 23.14L111.45 23.15L111.47 23.15L111.48 23.15L117.86 23.15L117.88 23.15L117.90 23.15L117.91 23.14ZM129.19 13.75L129.18 13.74L129.18 13.72L129.17 13.71L129.15 13.70L129.14 13.68L129.13 13.67L129.11 13.67L129.10 13.66L129.08 13.65L129.06 13.65L129.05 13.65L127.23 13.65L127.22 13.65L127.20 13.65L127.18 13.66L127.17 13.67L127.15 13.67L127.14 13.68L127.13 13.69L127.11 13.71L127.10 13.72L127.10 13.74L127.09 13.75L127.09 13.77L127.08 13.78L127.08 13.80L127.08 13.82L127.09 13.83L129.29 23.03L129.30 23.05L129.30 23.07L129.31 23.08L129.32 23.09L129.33 23.11L129.34 23.12L129.36 23.13L129.37 23.14L129.39 23.14L129.40 23.15L129.42 23.15L129.44 23.15L131.56 23.15L131.58 23.15L131.60 23.15L131.61 23.14L131.63 23.13L131.64 23.13L131.66 23.12L131.67 23.11L131.68 23.09L131.69 23.08L131.70 23.06L131.70 23.05L131.71 23.03L131.99 21.73L132.24 20.58L132.45 19.59L132.63 18.77L132.78 18.10L132.89 17.59L132.89 17.59L132.96 17.24L132.96 17.24L133.00 17.05L133.00 17.05L133.03 16.93L133.03 16.93L133.05 16.80L133.05 16.79L133.08 16.65L133.08 16.65L133.08 16.62L133.11 16.74L133.11 16.74L133.15 16.99L133.15 16.99L133.20 17.23L133.20 17.23L133.25 17.47L133.25 17.47L133.30 17.71L134.46 23.03L134.47 23.05L134.47 23.06L134.48 23.08L134.49 23.09L134.50 23.11L134.52 23.12L134.53 23.13L134.54 23.13L134.56 23.14L134.58 23.15L134.59 23.15L134.61 23.15L136.74 23.15L136.75 23.15L136.77 23.15L136.78 23.14L136.80 23.14L136.81 23.13L136.83 23.12L136.84 23.11L136.85 23.09L136.86 23.08L136.87 23.07L136.88 23.05L136.88 23.04L139.09 13.84L139.09 13.82L139.10 13.80L139.09 13.78L139.09 13.77L139.09 13.75L139.08 13.74L139.07 13.72L139.06 13.71L139.05 13.69L139.04 13.68L139.03 13.67L139.01 13.67L139.00 13.66L138.98 13.65L138.96 13.65L138.95 13.65L137.13 13.65L137.11 13.65L137.10 13.65L137.08 13.66L137.06 13.67L137.05 13.67L137.03 13.68L137.02 13.70L137.01 13.71L137.00 13.72L136.99 13.74L136.99 13.75L136.98 13.77L135.95 18.89L135.64 20.33L135.63 20.27L135.63 20.27L135.57 19.90L135.57 19.90L135.51 19.57L135.51 19.57L135.46 19.28L135.46 19.28L135.42 19.03L135.41 19.03L135.37 18.83L135.37 18.82L135.34 18.67L135.34 18.66L134.26 13.77L134.25 13.75L134.25 13.74L134.24 13.72L134.23 13.71L134.22 13.69L134.21 13.68L134.19 13.67L134.18 13.67L134.16 13.66L134.15 13.65L134.13 13.65L134.11 13.65L132.11 13.65L132.09 13.65L132.07 13.65L132.06 13.66L132.04 13.67L132.03 13.67L132.01 13.68L132.00 13.69L131.99 13.71L131.98 13.72L131.97 13.74L131.97 13.75L131.96 13.77L131.71 14.91L131.49 15.93L131.30 16.82L131.30 16.82L131.13 17.59L131.13 17.59L131.00 18.23L131.00 18.23L130.89 18.75L130.89 18.75L130.80 19.15L130.80 19.15L130.75 19.42L130.75 19.42L130.71 19.62L130.67 19.83L130.63 20.05L130.59 20.26L130.56 20.38L130.43 19.71L130.43 19.71L129.19 13.77L129.19 13.75ZM149.02 18.01L149.16 17.91L149.18 17.91L149.31 17.80L149.32 17.79L149.44 17.67L149.45 17.66L149.56 17.53L149.57 17.52L149.66 17.38L149.67 17.37L149.75 17.22L149.76 17.21L149.83 17.06L149.83 17.04L149.89 16.88L149.89 16.87L149.94 16.70L149.94 16.69L149.97 16.51L149.97 16.50L149.99 16.32L149.99 16.31L150.00 16.12L150.00 16.10L149.98 15.83L149.98 15.81L149.95 15.55L149.94 15.54L149.88 15.30L149.87 15.28L149.79 15.05L149.78 15.04L149.66 14.83L149.65 14.81L149.52 14.62L149.50 14.61L149.34 14.44L149.33 14.42L149.14 14.27L149.12 14.26L148.91 14.12L148.90 14.11L148.66 13.99L148.65 13.99L148.39 13.89L148.37 13.88L148.09 13.80L148.08 13.80L147.77 13.74L147.76 13.73L147.43 13.69L147.42 13.69L147.06 13.66L147.05 13.66L146.68 13.65L146.67 13.65L142.75 13.65L142.74 13.65L142.72 13.65L142.71 13.66L142.69 13.66L142.68 13.67L142.66 13.68L142.65 13.69L142.64 13.71L142.63 13.72L142.62 13.73L142.61 13.75L142.61 13.77L142.61 13.78L142.60 13.80L142.60 23.00L142.61 23.02L142.61 23.03L142.61 23.05L142.62 23.07L142.63 23.08L142.64 23.09L142.65 23.11L142.66 23.12L142.68 23.13L142.69 23.14L142.71 23.14L142.72 23.15L142.74 23.15L142.75 23.15L147.04 23.15L147.04 23.15L147.42 23.14L147.43 23.14L147.78 23.11L147.79 23.11L148.13 23.05L148.14 23.05L148.46 22.97L148.47 22.97L148.76 22.87L148.77 22.87L149.04 22.75L149.06 22.75L149.31 22.61L149.32 22.60L149.55 22.44L149.56 22.43L149.77 22.25L149.78 22.23L149.96 22.04L149.97 22.02L150.12 21.81L150.13 21.79L150.25 21.56L150.26 21.54L150.36 21.29L150.36 21.27L150.43 21.00L150.43 20.99L150.47 20.70L150.48 20.69L150.49 20.38L150.49 20.37L150.48 20.14L150.48 20.13L150.45 19.91L150.45 19.90L150.41 19.69L150.41 19.68L150.35 19.48L150.34 19.47L150.27 19.29L150.26 19.27L150.17 19.10L150.16 19.09L150.05 18.93L150.04 18.91L149.91 18.77L149.90 18.75L149.76 18.62L149.74 18.61L149.58 18.49L149.57 18.48L149.40 18.37L149.39 18.36L149.20 18.27L149.18 18.26L148.98 18.18L148.97 18.18L148.79 18.13L148.83 18.11L148.84 18.10L149.00 18.02L149.02 18.01ZM148.25 20.86L148.20 20.96L148.13 21.04L148.05 21.12L147.96 21.19L147.85 21.25L147.73 21.30L147.59 21.34L147.44 21.38L147.27 21.40L147.08 21.41L146.88 21.42L144.70 21.42L144.70 19.08L146.81 19.08L147.20 19.10L147.53 19.16L147.81 19.25L148.02 19.38L148.18 19.53L148.30 19.72L148.37 19.95L148.39 20.23L148.39 20.38L148.37 20.52L148.34 20.64L148.30 20.76L148.25 20.86ZM147.73 16.98L147.67 17.05L147.61 17.11L147.53 17.16L147.44 17.21L147.33 17.26L147.22 17.29L147.08 17.32L146.94 17.34L146.77 17.35L146.60 17.36L144.70 17.36L144.70 15.38L146.58 15.38L146.75 15.38L146.91 15.40L147.05 15.41L147.19 15.44L147.30 15.47L147.41 15.51L147.51 15.56L147.59 15.61L147.66 15.67L147.72 15.74L147.77 15.81L147.81 15.90L147.85 16.00L147.87 16.11L147.89 16.24L147.89 16.37L147.89 16.50L147.87 16.61L147.85 16.72L147.82 16.81L147.78 16.90L147.73 16.98ZM161.86 23.14L161.87 23.14L161.89 23.13L161.90 23.12L161.91 23.11L161.93 23.09L161.94 23.08L161.94 23.07L161.95 23.05L161.95 23.03L161.96 23.02L161.96 23.00L161.96 13.80L161.96 13.78L161.95 13.77L161.95 13.75L161.94 13.73L161.94 13.72L161.93 13.71L161.91 13.69L161.90 13.68L161.89 13.67L161.87 13.66L161.86 13.66L161.84 13.65L161.83 13.65L161.81 13.65L160.02 13.65L160.00 13.65L159.98 13.65L159.97 13.66L159.95 13.66L159.94 13.67L159.92 13.68L159.91 13.69L159.90 13.71L159.89 13.72L159.88 13.73L159.88 13.75L159.87 13.77L159.87 13.78L159.87 13.80L159.87 23.00L159.87 23.02L159.87 23.03L159.88 23.05L159.88 23.07L159.89 23.08L159.90 23.09L159.91 23.11L159.92 23.12L159.94 23.13L159.95 23.14L159.97 23.14L159.98 23.15L160.00 23.15L160.02 23.15L161.81 23.15L161.83 23.15L161.84 23.15L161.86 23.14ZM169.55 23.14L169.57 23.14L169.58 23.13L169.60 23.12L169.61 23.11L169.62 23.09L169.63 23.08L169.64 23.07L169.65 23.05L169.65 23.03L169.65 23.02L169.65 23.00L169.65 21.51L169.65 21.49L169.65 21.48L169.65 21.46L169.64 21.45L169.63 21.43L169.62 21.42L169.61 21.41L169.60 21.39L169.58 21.38L169.57 21.38L169.55 21.37L169.54 21.37L169.52 21.36L169.50 21.36L165.06 21.36L165.06 13.80L165.06 13.78L165.06 13.77L165.06 13.75L165.05 13.73L165.04 13.72L165.03 13.71L165.02 13.69L165.01 13.68L164.99 13.67L164.98 13.66L164.96 13.66L164.95 13.65L164.93 13.65L164.91 13.65L163.12 13.65L163.11 13.65L163.09 13.65L163.07 13.66L163.06 13.66L163.04 13.67L163.03 13.68L163.02 13.69L163.00 13.71L163.00 13.72L162.99 13.73L162.98 13.75L162.98 13.77L162.97 13.78L162.97 13.80L162.97 23.00L162.97 23.02L162.98 23.03L162.98 23.05L162.99 23.07L163.00 23.08L163.00 23.09L163.02 23.11L163.03 23.12L163.04 23.13L163.06 23.14L163.07 23.14L163.09 23.15L163.11 23.15L163.12 23.15L169.50 23.15L169.52 23.15L169.54 23.15L169.55 23.14ZM177.98 16.80L177.97 16.79L177.84 16.36L177.84 16.34L177.67 15.94L177.66 15.92L177.46 15.55L177.45 15.53L177.21 15.19L177.20 15.18L176.92 14.87L176.91 14.86L176.60 14.58L176.59 14.57L176.24 14.34L176.23 14.33L175.86 14.13L175.84 14.12L175.44 13.95L175.43 13.95L174.99 13.82L174.98 13.82L174.51 13.73L174.50 13.72L174.01 13.67L174.00 13.67L173.47 13.65L173.47 13.65L170.37 13.65L170.35 13.65L170.34 13.65L170.32 13.66L170.30 13.66L170.29 13.67L170.28 13.68L170.26 13.69L170.25 13.71L170.24 13.72L170.23 13.73L170.23 13.75L170.22 13.77L170.22 13.78L170.22 13.80L170.22 23.00L170.22 23.02L170.22 23.03L170.23 23.05L170.23 23.07L170.24 23.08L170.25 23.09L170.26 23.11L170.28 23.12L170.29 23.13L170.30 23.14L170.32 23.14L170.34 23.15L170.35 23.15L170.37 23.15L173.83 23.15L173.83 23.15L174.14 23.14L174.15 23.14L174.44 23.11L174.45 23.11L174.73 23.07L174.74 23.07L175.02 23.01L175.03 23.00L175.30 22.92L175.31 22.92L175.57 22.82L175.58 22.82L175.83 22.71L175.84 22.70L176.08 22.57L176.09 22.56L176.32 22.42L176.33 22.41L176.55 22.25L176.55 22.24L176.76 22.06L176.77 22.05L176.96 21.86L176.96 21.85L177.14 21.64L177.15 21.63L177.31 21.40L177.32 21.39L177.47 21.15L177.47 21.14L177.61 20.89L177.61 20.88L177.74 20.61L177.74 20.60L177.84 20.32L177.85 20.31L177.94 20.01L177.94 20.00L178.01 19.70L178.01 19.69L178.07 19.37L178.07 19.37L178.11 19.04L178.11 19.03L178.14 18.69L178.14 18.69L178.15 18.33L178.15 18.33L178.13 17.80L178.13 17.78L178.07 17.28L178.07 17.27L177.98 16.80ZM175.79 19.87L175.68 20.12L175.54 20.35L175.39 20.56L175.23 20.75L175.05 20.91L174.86 21.05L174.65 21.16L174.43 21.25L174.19 21.31L173.94 21.35L173.67 21.36L172.31 21.36L172.31 15.44L173.43 15.44L173.74 15.45L174.03 15.49L174.30 15.54L174.55 15.62L174.78 15.73L175.00 15.85L175.19 16.00L175.36 16.17L175.52 16.36L175.66 16.58L175.77 16.81L175.87 17.07L175.94 17.35L176.00 17.65L176.03 17.98L176.04 18.33L176.03 18.68L176.00 19.01L175.95 19.32L175.88 19.60L175.79 19.87ZM186.03 23.14L186.04 23.14L186.06 23.13L186.07 23.12L186.08 23.11L186.09 23.09L186.10 23.08L186.11 23.07L186.12 23.05L186.12 23.03L186.13 23.02L186.13 23.00L186.13 21.51L186.13 21.49L186.12 21.48L186.12 21.46L186.11 21.45L186.10 21.43L186.09 21.42L186.08 21.41L186.07 21.39L186.06 21.38L186.04 21.38L186.03 21.37L186.01 21.37L185.99 21.36L185.98 21.36L180.94 21.36L180.94 19.24L185.36 19.24L185.37 19.24L185.39 19.24L185.41 19.23L185.42 19.22L185.44 19.22L185.45 19.21L185.46 19.19L185.47 19.18L185.48 19.17L185.49 19.15L185.50 19.14L185.50 19.12L185.51 19.11L185.51 19.09L185.51 17.60L185.51 17.58L185.50 17.57L185.50 17.55L185.49 17.54L185.48 17.52L185.47 17.51L185.46 17.49L185.45 17.48L185.44 17.47L185.42 17.46L185.41 17.46L185.39 17.45L185.37 17.45L185.36 17.45L180.94 17.45L180.94 15.44L185.73 15.44L185.74 15.44L185.76 15.43L185.78 15.43L185.79 15.42L185.81 15.42L185.82 15.41L185.83 15.39L185.85 15.38L185.86 15.37L185.86 15.35L185.87 15.34L185.87 15.32L185.88 15.31L185.88 15.29L185.88 13.80L185.88 13.78L185.87 13.77L185.87 13.75L185.86 13.73L185.86 13.72L185.85 13.71L185.83 13.69L185.82 13.68L185.81 13.67L185.79 13.66L185.78 13.66L185.76 13.65L185.74 13.65L185.73 13.65L179.00 13.65L178.98 13.65L178.97 13.65L178.95 13.66L178.93 13.66L178.92 13.67L178.91 13.68L178.89 13.69L178.88 13.71L178.87 13.72L178.86 13.73L178.86 13.75L178.85 13.77L178.85 13.78L178.85 13.80L178.85 23.00L178.85 23.02L178.85 23.03L178.86 23.05L178.86 23.07L178.87 23.08L178.88 23.09L178.89 23.11L178.91 23.12L178.92 23.13L178.93 23.14L178.95 23.14L178.97 23.15L178.98 23.15L179.00 23.15L185.98 23.15L185.99 23.15L186.01 23.15L186.03 23.14ZM194.90 23.14L194.92 23.13L194.93 23.12L194.94 23.11L194.96 23.09L194.97 23.08L194.97 23.07L194.98 23.05L194.98 23.04L194.99 23.02L194.99 23.00L194.99 22.99L194.99 22.97L194.98 22.95L194.98 22.94L194.97 22.92L192.75 19.22L192.78 19.22L192.79 19.21L192.99 19.13L193.00 19.13L193.19 19.04L193.20 19.03L193.38 18.92L193.39 18.91L193.56 18.79L193.57 18.78L193.73 18.64L193.74 18.63L193.88 18.48L193.89 18.47L194.02 18.30L194.03 18.29L194.15 18.11L194.15 18.10L194.26 17.92L194.26 17.90L194.35 17.71L194.36 17.70L194.43 17.49L194.43 17.48L194.49 17.27L194.49 17.26L194.53 17.04L194.53 17.02L194.55 16.80L194.56 16.78L194.56 16.55L194.56 16.54L194.55 16.21L194.55 16.20L194.51 15.90L194.51 15.88L194.44 15.60L194.44 15.59L194.35 15.32L194.34 15.31L194.22 15.06L194.22 15.05L194.07 14.82L194.06 14.81L193.89 14.60L193.88 14.59L193.69 14.40L193.67 14.39L193.45 14.22L193.44 14.21L193.20 14.07L193.19 14.06L192.92 13.94L192.91 13.94L192.62 13.84L192.61 13.83L192.31 13.75L192.29 13.75L191.97 13.70L191.96 13.69L191.61 13.66L191.60 13.66L191.22 13.65L191.22 13.65L186.94 13.65L186.93 13.65L186.91 13.65L186.90 13.66L186.88 13.66L186.86 13.67L186.85 13.68L186.84 13.69L186.83 13.71L186.82 13.72L186.81 13.73L186.80 13.75L186.80 13.77L186.80 13.78L186.79 13.80L186.79 23.00L186.80 23.02L186.80 23.03L186.80 23.05L186.81 23.07L186.82 23.08L186.83 23.09L186.84 23.11L186.85 23.12L186.86 23.13L186.88 23.14L186.90 23.14L186.91 23.15L186.93 23.15L186.94 23.15L188.74 23.15L188.75 23.15L188.77 23.15L188.79 23.14L188.80 23.14L188.82 23.13L188.83 23.12L188.84 23.11L188.85 23.09L188.86 23.08L188.87 23.07L188.88 23.05L188.88 23.03L188.89 23.02L188.89 23.00L188.89 19.66L190.75 19.66L192.69 23.07L192.70 23.09L192.71 23.10L192.73 23.11L192.74 23.13L192.76 23.13L192.77 23.14L192.79 23.15L192.81 23.15L192.82 23.15L194.84 23.15L194.86 23.15L194.87 23.15L194.89 23.14L194.90 23.14ZM192.32 17.26L192.27 17.36L192.20 17.45L192.12 17.54L192.03 17.61L191.93 17.68L191.82 17.73L191.70 17.78L191.56 17.81L191.41 17.84L191.25 17.86L191.08 17.86L188.89 17.86L188.89 15.45L191.03 15.45L191.38 15.47L191.68 15.52L191.93 15.62L192.12 15.74L192.27 15.90L192.37 16.10L192.44 16.34L192.46 16.62L192.45 16.77L192.44 16.91L192.41 17.04L192.37 17.15L192.32 17.26ZM155.83 23.22L156.22 23.14L156.24 23.14L156.60 23.03L156.62 23.03L156.96 22.89L156.97 22.89L157.29 22.72L157.30 22.71L157.59 22.52L157.60 22.51L157.87 22.28L157.88 22.27L158.12 22.02L158.13 22.00L158.33 21.73L158.34 21.71L158.51 21.41L158.52 21.39L158.66 21.07L158.67 21.05L158.78 20.70L158.78 20.69L158.86 20.31L158.86 20.30L158.91 19.90L158.91 19.89L158.93 19.46L158.93 19.45L158.93 13.80L158.93 13.78L158.92 13.77L158.92 13.75L158.91 13.73L158.90 13.72L158.89 13.71L158.88 13.69L158.87 13.68L158.86 13.67L158.84 13.66L158.83 13.66L158.81 13.65L158.79 13.65L158.78 13.65L156.98 13.65L156.97 13.65L156.95 13.65L156.94 13.66L156.92 13.66L156.90 13.67L156.89 13.68L156.88 13.69L156.87 13.71L156.86 13.72L156.85 13.73L156.84 13.75L156.84 13.77L156.84 13.78L156.83 13.80L156.83 19.33L156.83 19.60L156.80 19.84L156.77 20.06L156.71 20.27L156.64 20.46L156.56 20.63L156.47 20.79L156.36 20.93L156.23 21.06L156.10 21.17L155.95 21.26L155.79 21.34L155.61 21.39L155.42 21.44L155.21 21.46L154.99 21.47L154.78 21.46L154.58 21.44L154.40 21.40L154.23 21.34L154.07 21.27L153.93 21.18L153.80 21.08L153.69 20.96L153.59 20.82L153.50 20.67L153.42 20.50L153.36 20.32L153.31 20.12L153.27 19.90L153.25 19.66L153.24 19.40L153.24 13.80L153.24 13.78L153.24 13.77L153.23 13.75L153.23 13.73L153.22 13.72L153.21 13.71L153.20 13.69L153.19 13.68L153.17 13.67L153.16 13.66L153.14 13.66L153.13 13.65L153.11 13.65L153.09 13.65L151.30 13.65L151.28 13.65L151.27 13.65L151.25 13.66L151.24 13.66L151.22 13.67L151.21 13.68L151.19 13.69L151.18 13.71L151.17 13.72L151.17 13.73L151.16 13.75L151.15 13.77L151.15 13.78L151.15 13.80L151.15 19.55L151.15 19.56L151.17 19.98L151.17 19.99L151.21 20.38L151.21 20.39L151.29 20.76L151.29 20.78L151.39 21.12L151.40 21.13L151.53 21.45L151.54 21.47L151.70 21.76L151.71 21.78L151.90 22.05L151.91 22.06L152.13 22.30L152.14 22.32L152.39 22.53L152.40 22.54L152.67 22.73L152.69 22.74L152.99 22.90L153.00 22.91L153.33 23.04L153.34 23.04L153.69 23.14L153.71 23.15L154.08 23.22L154.10 23.22L154.50 23.27L154.51 23.27L154.94 23.28L154.95 23.28L155.39 23.27L155.40 23.26L155.82 23.22L155.83 23.22Z" fill="#070708"/>
</svg>
